<svg width="180" height="233" fill="none" xmlns="http://www.w3.org/2000/svg">
  <path d="M26.09 43.46h96.9V179.5h-96.9V43.46Z" fill="#202020"/>
  <path d="M64.29 104.95h89.45v74.54H64.29v-74.54Z" fill="#202020"/>
  <path d="M0 140.37V36.47C19.24 39.11 38.79 14.72 30.96.6h117.17c-7.83 14.12 11.72 38.51 30.96 35.87v103.9a65.76 65.76 0 0 1-22.84 49.83l-2.91 2.5a81.83 81.83 0 0 1-11.1 8.05l-52.7 31.85-52.7-31.85a81.9 81.9 0 0 1-11.1-8.04l-2.9-2.5A65.77 65.77 0 0 1 0 140.36Z" fill="#353F87"/>
  <path d="M69.2 204.65v-1.17a18.45 18.45 0 0 1 2.27-.58l.2-7.21h-2.46v-1.14l3.86-1.45h1.97v9.85l2.18.41v1.29H69.2ZM83.2 192.95c1.63 0 2.84.46 3.64 1.38.8.92 1.19 2.33 1.19 4.24 0 2.13-.52 3.71-1.55 4.76-1.02 1.04-2.6 1.56-4.73 1.56a32.84 32.84 0 0 1-2.65-.22l.9-2.52a14.8 14.8 0 0 0 5.68.24l-1.5.62c.2-.5.37-1.16.5-1.97.12-.82.18-1.68.18-2.58 0-1.2-.13-2.05-.39-2.55s-.7-.75-1.32-.75c-.46 0-.82.14-1.06.4-.24.26-.36.64-.36 1.15 0 .5.11.85.34 1.06.23.22.63.32 1.19.32h3.52v2.16h-3.93c-1.4 0-2.47-.29-3.2-.87a3.1 3.1 0 0 1-1.1-2.56c0-1.2.41-2.15 1.24-2.83a5.2 5.2 0 0 1 3.41-1.04Zm-2.62 7.92 1.47 3.8H79.1l.04-3.8h1.44ZM94.98 192.95c1.63 0 2.84.46 3.63 1.38.8.92 1.2 2.33 1.2 4.24 0 2.13-.52 3.71-1.55 4.76-1.02 1.04-2.6 1.56-4.73 1.56a32.84 32.84 0 0 1-2.65-.22l.9-2.52a14.8 14.8 0 0 0 5.68.24l-1.51.62c.21-.5.38-1.16.5-1.97.13-.82.19-1.68.19-2.58 0-1.2-.13-2.05-.4-2.55-.25-.5-.7-.75-1.31-.75-.46 0-.82.14-1.07.4-.23.26-.35.64-.35 1.15 0 .5.11.85.33 1.06.24.22.64.32 1.2.32h3.52v2.16h-3.93c-1.4 0-2.47-.29-3.2-.87a3.1 3.1 0 0 1-1.1-2.56c0-1.2.4-2.15 1.24-2.83a5.2 5.2 0 0 1 3.41-1.04Zm-2.63 7.92 1.48 3.8h-2.95l.04-3.8h1.43ZM107.04 204.87a5.28 5.28 0 0 1-2.76-.69 4.63 4.63 0 0 1-1.75-2c-.4-.88-.6-1.92-.6-3.14 0-1.25.22-2.33.65-3.24a4.9 4.9 0 0 1 1.85-2.13c.8-.5 1.76-.74 2.85-.74 1.1 0 2.03.23 2.8.69.78.45 1.37 1.1 1.77 1.95.4.86.61 1.89.61 3.08 0 1.3-.22 2.4-.65 3.34a4.74 4.74 0 0 1-1.85 2.14c-.8.5-1.78.74-2.92.74Zm.18-2.03c.42 0 .74-.14 1-.43.25-.3.45-.73.57-1.32.14-.58.2-1.32.2-2.22 0-.85-.06-1.56-.2-2.12a2.51 2.51 0 0 0-.63-1.25 1.42 1.42 0 0 0-1.08-.43 1.94 1.94 0 0 0-1.14.38c-.16.55-.3 1.13-.4 1.7a12.39 12.39 0 0 0 .06 3.98c.14.57.34 1 .6 1.28.27.29.61.43 1.02.43ZM36.35 139.98v-2.05c3.5-1.37 6.13-2.22 12.36-2.56l1.02-73.33-13.38-2.43v-2.17h60.99l-.26 14.09h-2.17L91.2 62.3H53.06l2.69-2.56V135h25.72c5.12-1.03 9.09-3.08 11.9-6.15a16.24 16.24 0 0 0 4.35-11.39c0-6.05-1.83-10.62-5.5-13.69-3.58-3.07-8.79-4.6-15.61-4.6H52.68v-5h25.2c8.11 0 14.51 2.05 19.2 6.15 4.78 4.1 7.17 9.55 7.17 16.38 0 7.08-2.69 12.75-8.06 17.02-5.3 4.18-12.42 6.27-21.37 6.27H36.35Z" fill="#fff"/>
  <path d="M85.28 86.9v72.95l13.22 2.43v2.3H64.77v-2.04c2.56-.68 3.92-1.24 6.3-1.67 2.48-.42 4.87-.72 7.17-.9l1.03-73.32-14.5-2.43v-2.17h85.3v1.79c-2.22.68-3.45 1.23-5.92 1.66-2.4.43-4.9.77-7.55 1.03v73.32l13.47 2.43v2.3h-33.73v-1.66c2.56-.77 3.88-1.4 6.18-1.92a51.9 51.9 0 0 1 7.04-1.02l1.15-73.07H85.28Z" fill="#fff"/>
  <path fill-rule="evenodd" clip-rule="evenodd" d="M116.34 162.92c1-.3 1.81-.58 2.57-.84 1.17-.4 2.2-.77 3.6-1.08a51.9 51.9 0 0 1 7.05-1.02l1.15-73.07H85.28v72.94l13.22 2.43v2.3H64.77v-2.04c.88-.24 1.62-.46 2.31-.66 1.31-.4 2.43-.73 4-1 2.47-.43 4.86-.73 7.16-.9l1.03-73.33-14.5-2.43v-2.17h85.3v1.79c-.6.18-1.13.36-1.63.52-1.34.45-2.49.83-4.3 1.14-2.38.43-4.9.77-7.54 1.03v73.32l13.47 2.43v2.3h-33.73v-1.66Zm21.76-4.32 13.47 2.43v5.06h-36.73v-4.28l1.07-.32a59.43 59.43 0 0 0 3.13-1.04c.96-.33 1.92-.64 3.15-.91h.02c1.98-.43 3.94-.74 5.87-.94l1.1-70.2h-42.4v70.2l13.22 2.43v5.06H63.27v-4.7l1.11-.3c.8-.21 1.5-.42 2.18-.62 1.36-.4 2.61-.78 4.25-1.07h.01c2.03-.35 4.01-.62 5.94-.8l.99-70.68-14.48-2.43v-4.94h88.3v4.4l-1.06.32c-.54.17-1.04.33-1.52.5-1.38.45-2.66.88-4.59 1.2-2.01.37-4.12.67-6.3.9v70.73Z" fill="#353F87"/>
  <mask id="a" style="mask-type:alpha" maskUnits="userSpaceOnUse" x="28" y="87" width="81" height="22">
    <path d="M28.5 87.48h80.38v21.33H28.5V87.48Z" fill="#C4C4C4"/>
  </mask>
  <g mask="url(#a)">
    <path d="M34.12 139.98v-2.05c3.5-1.37 8.36-2.22 14.59-2.56l1.02-73.33-15.6-2.43v-2.17h63.2l-.25 26.36h-2.17L91.2 62.3H53.06l2.69-2.56V135h25.72c5.12-1.03 9.09-3.08 11.9-6.15a16.24 16.24 0 0 0 4.35-11.39c0-6.05-1.83-10.62-5.5-13.69-3.58-3.07-8.79-4.6-15.61-4.6H52.68v-5h25.2c8.11 0 14.51 2.05 19.2 6.15 4.78 4.1 7.17 9.55 7.17 16.38 0 7.08-2.69 12.75-8.06 17.02-5.3 4.18-12.42 6.27-21.37 6.27h-40.7Z" fill="#fff"/>
    <path fill-rule="evenodd" clip-rule="evenodd" d="M30.12 143.98v-8.78l2.55-1c3.25-1.27 7.32-2.09 12.1-2.55l.9-65.35h-2.6l1.12-1.07-14.07-2.2v-9.6h26.45l3.18-3.02v3.03h41.63l-.34 34.36h-9.5l-3.71-21.5H59.75v23.86h18.14c8.76 0 16.2 2.23 21.8 7.12 5.75 4.92 8.56 11.53 8.56 19.4 0 8.26-3.21 15.1-9.58 20.16-6.2 4.9-14.3 7.14-23.85 7.14h-44.7Zm66.96-43.67c-4.69-4.1-11.09-6.15-19.2-6.15H55.76V62.3H91.2l3.7 21.5h2.18l.26-26.36H34.12v2.17l15.61 2.43-1.02 73.33c-2.36.13-4.52.33-6.48.6-3.23.46-5.93 1.11-8.1 1.96v2.05h40.69c8.95 0 16.08-2.1 21.37-6.27 5.37-4.27 8.06-9.94 8.06-17.02 0-6.83-2.39-12.29-7.17-16.38Zm-41.33 2.84V131h4v4h21.72c5.12-1.03 9.09-3.08 11.9-6.15a16.24 16.24 0 0 0 4.35-11.39c0-6.05-1.83-10.62-5.5-13.69-3.58-3.07-8.79-4.6-15.61-4.6H59.75v4h-4ZM81.06 131h.41v4l-.78-3.93.37-.07Z" fill="#353F87"/>
  </g>
</svg>
