<svg width="367" height="104" fill="none" xmlns="http://www.w3.org/2000/svg">
  <path d="M14 103H.65v-2.61H4.9v-27.4H.65v-2.6H14v2.6h-3.88v19.99l-.56 3.5 2.52-3.69 15.27-18.77v-1.03H23.1v-2.6h13.44v2.6H32.3v27.4h4.25v2.6H23.1v-2.6h3.97V80.45l.5-3.5-2.28 3.5-15.5 19v.94H14v2.6ZM12.92 22.54l2.3-.19a22.8 22.8 0 0 1 7.37.37c1.58.32 2.98.85 4.2 1.6a8.31 8.31 0 0 1 2.89 2.97 8.76 8.76 0 0 1 1.07 4.52c0 1.71-.37 3.18-1.12 4.43a9.4 9.4 0 0 1-3.03 3.03 14.6 14.6 0 0 1-4.43 1.81 23.88 23.88 0 0 1-6.35.51c-.53 0-1.14-.01-1.82-.04-.66 0-1.34-.02-2.06-.05H3.45v-2.6H7.7V11.5H3.45V8.9H28.5v8.52h-3.36v-4.9l-.93-1.02h-11.3v11.04Zm3.55 2.28c-.8 0-1.5.02-2.05.05-.56.03-1.06.1-1.5.23v13.7c.16.06.4.1.75.14.34 0 .7.01 1.07.05.38.03.74.04 1.08.04h.8c1.2 0 2.3-.14 3.3-.42a6.27 6.27 0 0 0 4.34-3.59c.44-.9.66-1.98.66-3.25 0-2.27-.7-4-2.1-5.18-1.4-1.18-3.52-1.77-6.35-1.77ZM45.83 41.5H34.4v-2.6h3.64l12.08-30h4.95l11.06 30h3.5v2.6H56.28v-2.6h4.16l-3.03-8.2H44.99l-3.17 8.2h4.01v2.6Zm.23-13.42h10.55l-3.83-10.76-1.16-4.93h-.19l-1.35 5.03-4.02 10.66ZM72.52 11.5V8.9h4.86c1.4 0 2.9-.07 4.52-.2 1.65-.12 3.24-.18 4.76-.18 1.71 0 3.4.17 5.04.51 1.65.31 3.12.86 4.4 1.63a8.98 8.98 0 0 1 3.07 3.12 8.79 8.79 0 0 1 1.22 4.8 9 9 0 0 1-1.22 4.75 9.94 9.94 0 0 1-3.22 3.22c-1.3.84-2.83 1.46-4.57 1.86-1.71.4-3.49.6-5.32.6H84a191.45 191.45 0 0 1-2-.18v10.06h4.66v2.61H72.52v-2.6h4.25V11.5h-4.25ZM82 26.17c.15.07.39.11.7.14.34 0 .7.02 1.07.05.37.03.73.05 1.07.05h.84c1.22 0 2.35-.14 3.41-.42a8.4 8.4 0 0 0 2.85-1.4 6.45 6.45 0 0 0 1.91-2.42c.47-1 .7-2.2.7-3.59 0-2.55-.8-4.42-2.43-5.64-1.58-1.2-3.76-1.81-6.53-1.81-.84 0-1.54.03-2.1.09-.56.03-1.06.1-1.5.19v14.76ZM105.05 11.5V8.9h12.84v2.6h-3.36v27.4H126V11.5h-3.36V8.9h11.95v2.6h-3.36v27.4h11.48V11.5h-3.36V8.9h12.83v2.6h-4.25v27.4h5.23v10.15h-3.22v-6.52l-.93-1.03h-43.97v-2.6h4.25V11.5h-4.25ZM181.7 8.9v7.63h-3v-4l-.93-1.03h-11.43v12.07h7.88l.7-.7V20.9h3v7.97h-3v-1.96l-.7-.75h-7.88V38.9h12.23l.93-.93V33.4h2.99v8.1h-25.63v-2.6h4.25V11.5h-4.25V8.9h24.83ZM188.34 41.5v-2.6h4.25V11.5h-4.25V8.9h6.12c.65 0 1.28-.02 1.87-.06a384.15 384.15 0 0 1 3.96-.18c.78-.03 1.64-.05 2.57-.05 1.37 0 2.77.11 4.2.33 1.43.18 2.72.56 3.88 1.12a7.17 7.17 0 0 1 2.8 2.37c.74 1 1.11 2.3 1.11 3.91 0 .84-.15 1.67-.46 2.47-.28.81-.72 1.56-1.3 2.24a8.3 8.3 0 0 1-2.16 1.82 9.8 9.8 0 0 1-3.03 1.16v.19c1.03.15 2.06.42 3.08.79 1.03.37 1.95.89 2.76 1.54.83.62 1.5 1.4 2 2.33.5.93.75 2.05.75 3.35 0 1.68-.42 3.12-1.26 4.33a9.59 9.59 0 0 1-3.22 2.98 15.7 15.7 0 0 1-4.58 1.73c-1.68.34-3.39.51-5.13.51a68 68 0 0 1-4.1-.14c-1.5-.1-2.95-.14-4.35-.14h-5.5Zm14.33-2.33c1.22 0 2.34-.15 3.36-.46a8.56 8.56 0 0 0 2.71-1.4 6.18 6.18 0 0 0 2.38-4.85 5.5 5.5 0 0 0-2.84-5.03 8.49 8.49 0 0 0-3-1.02 22.8 22.8 0 0 0-3.63-.28h-3.83v12.62c.47.13 1.03.24 1.68.33.69.06 1.74.1 3.17.1Zm-2.33-15.46c.62 0 1.3-.02 2.05-.05.78-.06 1.44-.13 1.96-.19a8.3 8.3 0 0 0 3.83-2.37 5.8 5.8 0 0 0 1.45-3.92c0-2.05-.66-3.55-1.96-4.52-1.3-.96-3.08-1.44-5.32-1.44-1.06 0-1.96.03-2.71.1-.72.02-1.32.07-1.82.13v12.26h2.52ZM247.03 32.93h2.99v7.31c-.96.53-2.24.97-3.83 1.3-1.58.35-3.16.52-4.71.52-2.86 0-5.43-.33-7.7-.98a15.13 15.13 0 0 1-5.79-3.03 13.8 13.8 0 0 1-3.6-5.26 20.54 20.54 0 0 1-1.25-7.6c0-3.04.46-5.62 1.4-7.73.93-2.14 2.19-3.88 3.78-5.21a14.82 14.82 0 0 1 5.5-2.99c2.09-.62 4.28-.93 6.59-.93a29.74 29.74 0 0 1 5.46.47c.74.15 1.43.34 2.05.56.62.21 1.23.45 1.82.7v7.96h-2.99v-4.89l-.65-.93a13.4 13.4 0 0 0-1.63-.56 13.3 13.3 0 0 0-3.5-.33c-1.68 0-3.26.27-4.72.8a10.03 10.03 0 0 0-3.82 2.46 12 12 0 0 0-2.53 4.34 18.75 18.75 0 0 0-.93 6.29c0 4.44 1.12 7.87 3.36 10.3 2.27 2.38 5.45 3.58 9.52 3.58 1.12 0 2.06-.08 2.8-.23a4.82 4.82 0 0 0 1.73-.7l.65-.89v-4.33ZM268.51 23.7l10.18-12.2h-3.78V8.9h11.52v2.6h-3.68l-11.11 12.44 13.2 14.95h2.9v2.61h-7.51l-12.28-15.47h-2.47V38.9h3.87v2.61H256v-2.6h4.25V11.5H256V8.9h13.35v2.6h-3.87v12.2h3.03ZM303.98 41.5h-13.35v-2.6h4.25V11.5h-4.25V8.9h13.35v2.6h-3.87v19.99l-.56 3.49 2.52-3.68 15.26-18.78V11.5h-4.25V8.9h13.44v2.6h-4.24v27.4h4.24v2.6h-13.44v-2.6h3.97V18.94l.51-3.49-2.29 3.5-15.49 19v.93h4.2v2.61ZM344.26 41.5H330.9v-2.6h4.25V11.5h-4.25V8.9h13.35v2.6h-3.87v19.99l-.56 3.49 2.52-3.68 15.26-18.78V11.5h-4.25V8.9h13.44v2.6h-4.25v27.4h4.25v2.6h-13.44v-2.6h3.97V18.94l.51-3.49-2.29 3.5-15.5 19v.93h4.2v2.61ZM349.1 6.9c-3.2 0-5.57-.53-7.1-1.59-1.51-1.05-2.28-2.67-2.28-4.84h5.42v3.68c.43.22 1 .39 1.72.51a17.74 17.74 0 0 0 4.39 0 9.9 9.9 0 0 0 1.91-.37V.46h5.19c0 2.14-.74 3.76-2.2 4.84-1.43 1.06-3.78 1.59-7.05 1.59ZM79.2 73v27.39h3.87v2.6H69.73v-2.6h4.24v-27.4h-4.24v-2.6h34.72v2.6h-4.25v27.4h4.25v2.6H91.1v-2.6h3.88v-27.4H79.2ZM120.16 103h-11.43v-2.61h3.64l12.08-30h4.95l11.06 30h3.5v2.6h-13.34v-2.6h4.15l-3.03-8.2h-12.42l-3.17 8.2h4.01v2.6Zm.23-13.42h10.55l-3.83-10.76-1.16-4.94h-.19l-1.35 5.03-4.02 10.67ZM148.25 73v-2.61h4.86c1.4 0 2.9-.07 4.52-.2 1.65-.12 3.24-.18 4.76-.18 1.72 0 3.4.17 5.05.51 1.64.32 3.1.86 4.38 1.64a8.98 8.98 0 0 1 3.08 3.12 8.79 8.79 0 0 1 1.22 4.8 9 9 0 0 1-1.22 4.75 9.94 9.94 0 0 1-3.22 3.21c-1.3.84-2.83 1.46-4.57 1.86-1.71.4-3.49.61-5.32.61h-2.06a185.24 185.24 0 0 1-2-.19v10.07h4.66v2.6h-14.14v-2.6h4.25v-27.4h-4.25Zm9.48 14.67c.15.06.39.1.7.14.34 0 .7.01 1.07.05.37.03.73.04 1.07.04h.84c1.22 0 2.35-.14 3.41-.42a8.4 8.4 0 0 0 2.85-1.4 6.45 6.45 0 0 0 1.91-2.42c.47-1 .7-2.19.7-3.58 0-2.55-.8-4.43-2.43-5.64-1.58-1.21-3.76-1.82-6.53-1.82-.84 0-1.54.03-2.1.1-.56.03-1.06.09-1.5.18v14.77ZM204.4 103h-14.84v-2.61h4.8v-27.4h-8.35l-.93 1.03v6h-3.36V70.4h30.52v9.64h-3.36v-6.01l-.93-1.03h-8.36v27.4h4.81v2.6ZM230.92 100.39v2.6h-13.35v-2.6h4.25v-27.4h-4.25v-2.6h13.35v2.6h-3.87v11.98h16.33V72.99h-3.87v-2.6h13.35v2.6h-4.25v27.4h4.25v2.6H239.5v-2.6h3.87V87.58h-16.33v12.8h3.87ZM283.49 70.39v7.64h-2.99v-4.01l-.93-1.03h-11.44v12.07h7.9l.7-.7V82.4h2.98v7.97h-2.99v-1.96l-.7-.74h-7.89v12.72h12.23l.94-.94V94.9h2.98v8.1h-25.62v-2.6h4.25v-27.4h-4.25v-2.6h24.83ZM291.54 73v-2.61h4.86c1.4 0 2.9-.07 4.52-.2 1.65-.12 3.24-.18 4.76-.18 1.71 0 3.4.17 5.05.51 1.64.32 3.1.86 4.38 1.64a8.97 8.97 0 0 1 3.08 3.12 8.79 8.79 0 0 1 1.22 4.8 9 9 0 0 1-1.22 4.75 9.94 9.94 0 0 1-3.22 3.21c-1.3.84-2.83 1.46-4.57 1.86-1.71.4-3.49.61-5.32.61h-2.06a184.77 184.77 0 0 1-2-.19v10.07h4.66v2.6h-14.14v-2.6h4.25v-27.4h-4.25Zm9.48 14.67c.15.06.38.1.7.14.34 0 .7.01 1.07.05.37.03.73.04 1.07.04h.84c1.22 0 2.35-.14 3.41-.42a8.4 8.4 0 0 0 2.85-1.4 6.44 6.44 0 0 0 1.91-2.42c.47-1 .7-2.19.7-3.58 0-2.55-.8-4.43-2.43-5.64-1.58-1.21-3.76-1.82-6.53-1.82-.84 0-1.54.03-2.1.1-.56.03-1.06.09-1.5.18v14.77ZM325.47 73v-2.61h14.1v2.6h-4.62v10.58a37.07 37.07 0 0 1 4.71-.33c1.71 0 3.35.14 4.9.42 1.59.28 2.97.78 4.16 1.5a7.95 7.95 0 0 1 2.89 2.93 9.43 9.43 0 0 1 1.07 4.75c0 1.83-.4 3.4-1.21 4.7a9.82 9.82 0 0 1-3.13 3.17 14.5 14.5 0 0 1-4.48 1.87 22.77 22.77 0 0 1-6.02.5c-.5 0-1.07 0-1.73-.04-.65 0-1.32-.01-2-.04h-8.64v-2.61h4.25v-27.4h-4.25Zm27.96 0v-2.61h13.53v2.6h-4.24v27.4h4.24v2.6h-13.53v-2.6h4.06v-27.4h-4.06Zm-14.98 12.85a19.08 19.08 0 0 0-3.5.28v14.16c.15.07.39.11.7.14.34 0 .7.02 1.07.05.37.03.73.05 1.07.05h.8c1.21 0 2.32-.16 3.31-.47a6.5 6.5 0 0 0 4.34-3.82c.4-1 .6-2.14.6-3.45 0-4.62-2.8-6.94-8.4-6.94Z" fill="#202020"/>
</svg>
