<svg width="32" height="32" fill="none" xmlns="http://www.w3.org/2000/svg">
  <path d="M20.07 6.67a6.67 6.67 0 0 1 5.26 5.26m-5.26-10.6a12 12 0 0 1 10.6 10.59m-1.34 10.64v4a2.67 2.67 0 0 1-2.9 2.67 26.39 26.39 0 0 1-11.51-4.1 26 26 0 0 1-8-8 26.39 26.39 0 0 1-4.1-11.56 2.67 2.67 0 0 1 2.66-2.9h4a2.67 2.67 0 0 1 2.67 2.29c.17 1.28.48 2.54.93 3.75a2.67 2.67 0 0 1-.6 2.81l-1.7 1.7c1.9 3.33 4.67 6.1 8 8l1.7-1.7a2.67 2.67 0 0 1 2.81-.6c1.21.45 2.47.76 3.75.93a2.67 2.67 0 0 1 2.3 2.71Z" stroke="#0967D6" stroke-width="2" stroke-linecap="round" stroke-linejoin="round"/>
</svg>
