<svg width="64" height="64" fill="none" xmlns="http://www.w3.org/2000/svg">
  <path fill-rule="evenodd" clip-rule="evenodd" d="M25.02 6.38A6.89 6.89 0 0 1 31.89 0h.22c3.64 0 6.61 2.81 6.87 6.38H63a1 1 0 1 1 0 2h-9.09l6.59 9.5v5.19a4 4 0 0 1-4 4H48a4 4 0 0 1-4-4V17.9l6.16-9.52H38.84a6.9 6.9 0 0 1-2.84 4.2v24.34l5.39 1.59 20.36-10.94H64V43.2l-19.12 9.57c-.05.44-.15.89-.35 1.3-.32.65-.88 1.2-1.73 1.39-.35.07-.7.08-1.09.04v.03a3.8 3.8 0 0 1-.3 1.8c-.32.64-.9 1.12-1.73 1.23-.21.02-.42.03-.65.01-.1.89-.53 1.7-1.08 2.29-.8.83-2.19 1.46-3.5.58-.49-.32-1.15-.83-1.83-1.37a2.8 2.8 0 0 1-.6.93l-2.06 2.14a2.8 2.8 0 0 1-4.8-2.16 2.78 2.78 0 0 1-3-3 2.8 2.8 0 0 1-2.8-3.87 2.79 2.79 0 0 1-3.55-2.54 1 1 0 0 1-.33-.13l-2.96-1.8-.25.95H9.8L0 46.78V25.56h3.8l12.85 8.58-.36 1.37 9.26-1.45 2.26.6V12.43a6.89 6.89 0 0 1-2.65-4.05H13.41l6.59 9.5v5.19a4 4 0 0 1-4 4H7.5a4 4 0 0 1-4-4V17.9l6.16-9.52H1a1 1 0 1 1 0-2h24.02ZM31.89 2h.22a4.89 4.89 0 0 1 0 9.77h-.22a4.89 4.89 0 0 1 0-9.77ZM29.8 13.45V35.2l3.46.93.73.21V13.51c-.6.17-1.23.26-1.89.26h-.22c-.73 0-1.43-.1-2.08-.32Zm17.03 3.75 5.19-8.02 5.56 8.02H46.84Zm-.84 2h12.5v3.87a2 2 0 0 1-2 2H48a2 2 0 0 1-2-2V19.2ZM11.53 9.18l5.56 8.02H6.34l5.19-8.02ZM5.5 19.2H18v3.87a2 2 0 0 1-2 2H7.5a2 2 0 0 1-2-2V19.2Zm25.15 36.65a1 1 0 0 0-.87-.21 2.79 2.79 0 0 0-2.98-2.37 2.8 2.8 0 0 0-3.56-2.9 2.8 2.8 0 0 0-4.59-3.03l-2.06 2.14c-.07.06-.12.13-.18.2l-3.35-2.05 2.66-10 9.73-1.53 4.75 1.27-5.36 2.68a3 3 0 0 0-.94 4.63l.32.37a3 3 0 0 0 3.63.74l3.89-1.95a2 2 0 0 1 2.14.22l8.95 7.1c.05.31.09.65.09.98 0 .47-.08.83-.2 1.07-.09.2-.2.27-.35.3-.2.05-.61.04-1.35-.27l-4.9-3.92a1 1 0 0 0-1.25 1.56l4.73 3.78c.06.33.1.65.12.96.01.42-.04.7-.11.84-.04.08-.06.1-.2.12-.2.03-.63 0-1.39-.33l-4.9-3.93a1 1 0 1 0-1.25 1.57l5.1 4.08.08.04a2 2 0 0 1-.55 1.48c-.44.46-.76.42-.94.3-.7-.47-1.92-1.44-2.99-2.32a146.93 146.93 0 0 1-1.77-1.49l-.11-.1-.04-.03ZM10.73 48.6h-.54l-1.99-.77 3.9-14.32 2.25 1.5-3.62 13.59Zm-.38-16.26L6.33 47.1 2 45.4V27.56h1.2l7.15 4.78Zm22.75 5.81-7.37 3.69a1 1 0 0 0-.3 1.54l.31.37a1 1 0 0 0 1.21.25l3.9-1.95a4 4 0 0 1 4.27.44l10 7.93L62 41.97V29.7L41.61 40.66l-8.51-2.51ZM18.02 50.87l2.07-2.14a.8.8 0 1 1 1.14 1.11l-2.06 2.14a.8.8 0 1 1-1.15-1.11Zm5.42 1.63-2.06 2.14a.8.8 0 0 0 1.14 1.1l2.07-2.13a.8.8 0 0 0-1.15-1.1Zm.94 5.14 2.06-2.13a.8.8 0 1 1 1.15 1.1l-2.07 2.14a.8.8 0 1 1-1.14-1.1Zm5.06.87-2.06 2.14a.8.8 0 0 0 1.14 1.1l2.07-2.13a.8.8 0 0 0-1.15-1.1Z" fill="#14B2E4"/>
</svg>
