<svg width="65" height="65" fill="none" xmlns="http://www.w3.org/2000/svg">
  <path fill-rule="evenodd" clip-rule="evenodd" d="M13.5 14.23a4.4 4.4 0 0 0 .02 6.26 4.53 4.53 0 0 0 5.13.84l2.04 2.12-.66.7a3.96 3.96 0 0 0-.6 4.7L1.2 47.54a3.43 3.43 0 0 0 .09 4.88 3.52 3.52 0 0 0 4.94-.09l18.3-18.75a4 4 0 0 0 4.8-1.03l.41-.5 2.33 2.1a4.4 4.4 0 0 0 .76 5.3 4.52 4.52 0 0 0 6.34-.03l12.47-12.44a4.4 4.4 0 0 0-.03-6.27 4.52 4.52 0 0 0-4.64-1.03l-5.4-4.98-3.6-3.42-4.67-4.63-.05.05a4.4 4.4 0 0 0-.94-4.95 4.52 4.52 0 0 0-6.34.03L13.49 14.23ZM27.36 3.16 14.89 15.6c-.97.97-.96 2.54.02 3.5.98.97 2.57.96 3.55 0L30.93 6.64c.98-.98.97-2.55-.01-3.51a2.53 2.53 0 0 0-3.55.02Zm17.88 17.6-4.33-3.98-11.8 12.09 4.22 3.77 11.9-11.88Zm-25.04-.65 11.9-11.87 3.79 3.74-11.84 12.13-3.85-4Zm1.25 5.38.6-.62 1.3 1.35 3.68 3.41 1.24 1.11-.47.56c-.7.84-1.93.96-2.79.3l-3.6-3.34c-.72-.8-.7-2 .04-2.77Zm-.7 4.82 2.2 2.06L4.8 50.97c-.58.6-1.54.62-2.14.05a1.49 1.49 0 0 1-.04-2.13l18.13-18.58Zm4.7-4.82 2.22 2.05 11.81-12.1-2.19-2.09L25.46 25.5Zm8.74 9.07L46.68 22.1a2.53 2.53 0 0 1 3.54-.01c.99.96 1 2.53.02 3.5L37.76 38.05c-.97.97-2.56.98-3.54.02-.99-.97-1-2.54-.02-3.51ZM.99 58.6c0-1.07.89-1.95 1.98-1.95h26.67v-3.9a2.95 2.95 0 0 1 2.96-2.93v-1.95a2.95 2.95 0 0 1 2.97-2.93h18.77a2.95 2.95 0 0 1 2.96 2.93v1.95h.99a2.95 2.95 0 0 1 2.96 2.93v3.9h1c1.08 0 1.97.88 1.97 1.96v3.9c0 1.08-.89 1.96-1.98 1.96H2.97c-1.1 0-1.98-.88-1.98-1.96v-3.9Zm61.25 0v3.91H2.97v-3.9h59.27ZM32.6 51.78a.98.98 0 0 0-.98.98v2.93h27.66v-2.93a.98.98 0 0 0-.99-.98H32.6Zm22.73-1.95v-1.95a.98.98 0 0 0-1-.98H35.58a.98.98 0 0 0-.99.98v1.95h20.75Z" fill="#14B2E4"/>
</svg>
