<svg width="64" height="64" fill="none" xmlns="http://www.w3.org/2000/svg">
  <path d="M5.96 45.31a1 1 0 0 0 0 2h31.25a1 1 0 1 0 0-2H5.96ZM5.96 49.34a1 1 0 1 0 0 2h18.85a1 1 0 1 0 0-2H5.96Z" fill="#14B2E4"/>
  <path fill-rule="evenodd" clip-rule="evenodd" d="M20.83 31.06v9.72h-3.96a1 1 0 0 0 0 2h9.92a1 1 0 0 0 0-2h-3.96v-9.72a3.48 3.48 0 0 0 2.34-2.37h2.3l-2.53 4.03-.04.12a4.62 4.62 0 0 0 .6 3.66 4.41 4.41 0 0 0 3.82 2.18 3.87 3.87 0 0 0 3.61-2.26c.57-1.17.65-2.57.32-3.58l-.03-.1-2.25-4.05h1.28a1 1 0 0 0 0-2h-7.08a3.47 3.47 0 0 0-6.68 0h-7.57a1 1 0 1 0 0 2h1.66l-2.57 4.1-.04.12a4.62 4.62 0 0 0 .6 3.67 4.41 4.41 0 0 0 3.82 2.18 3.87 3.87 0 0 0 3.62-2.27c.56-1.16.64-2.56.3-3.58l-.02-.09-2.3-4.13h2.5a3.48 3.48 0 0 0 2.34 2.37Zm2.47-3.32v-.1a1.47 1.47 0 1 0-2.94 0v.1a1.47 1.47 0 0 0 2.94 0Zm-10.57 4.48 1.56-2.5 1.38 2.5h-2.94Zm-.9 2h4.69c0 .44-.1.95-.31 1.4a1.88 1.88 0 0 1-1.82 1.14c-.97 0-1.67-.52-2.11-1.23a3.16 3.16 0 0 1-.46-1.3Zm19.61-.07h-4.69c.04.39.18.86.46 1.3a2.41 2.41 0 0 0 2.11 1.23c.94 0 1.5-.48 1.82-1.14.22-.45.3-.96.3-1.4Zm-3.79-2h2.95l-1.38-2.5-1.57 2.5Z" fill="#14B2E4"/>
  <path d="M24.8 5.54a1 1 0 1 0 0 2h20.34a1 1 0 1 0 0-2H24.81ZM24.8 10.57a1 1 0 0 0 0 2h20.34a1 1 0 1 0 0-2H24.81ZM24.8 16.11a1 1 0 1 0 0 2h20.34a1 1 0 0 0 0-2H24.81ZM52.62 13.76a4.5 4.5 0 0 0-.09 1.6h1.98a2.74 2.74 0 0 1 .86-2.1c.24-.26.5-.5.79-.71a3.76 3.76 0 0 0 1.62-3.32c0-.93-.31-1.67-.94-2.21a3.84 3.84 0 0 0-2.63-.84c-.83 0-1.55.1-2.14.31-.58.2-1.1.47-1.56.78l.9 1.74a4.24 4.24 0 0 1 1.14-.58c.21-.08.43-.14.64-.18.22-.05.42-.07.61-.07.6 0 1 .12 1.23.38.24.25.36.6.36 1.01 0 .33-.08.61-.23.86-.16.22-.35.45-.6.67l-.74.68a4 4 0 0 0-1.2 1.98ZM52.57 16.93c-.26.24-.4.58-.4 1 0 .42.14.76.4 1.01.26.26.6.39 1.03.39.46 0 .81-.13 1.08-.39.26-.25.39-.59.39-1.01 0-.42-.13-.76-.4-1a1.47 1.47 0 0 0-1.07-.38c-.42 0-.77.13-1.03.38Z" fill="#14B2E4"/>
  <path fill-rule="evenodd" clip-rule="evenodd" d="M20.36 0a3 3 0 0 0-3 3v17.64H3a3 3 0 0 0-3 3v29.74a3 3 0 0 0 3 3h2.45a1 1 0 0 1 1 1v3.61a3 3 0 0 0 4.49 2.61l12.42-7.1a1 1 0 0 1 .5-.12h16.8a3 3 0 0 0 3-3V38.44l7.46 4.1a3 3 0 0 0 4.45-2.63v-3.67H61a3 3 0 0 0 3-3V3a3 3 0 0 0-3-3H20.36ZM3 22.64h15.35l22.34.47a1 1 0 0 1 .97 1v11.46c0 .29.05.57.13.84a1 1 0 0 0-.13.48v16.49a1 1 0 0 1-1 1h-16.8a3 3 0 0 0-1.5.4L9.94 61.85a1 1 0 0 1-1.5-.87v-3.61a3 3 0 0 0-3-3H3a1 1 0 0 1-1-1V23.64a1 1 0 0 1 1-1Zm37.73-1.53-21.37-.45V3a1 1 0 0 1 1-1H61a1 1 0 0 1 1 1v30.24a1 1 0 0 1-1 1h-6.43a1 1 0 0 0-1 1.1v4.57a1 1 0 0 1-1.48.88l-7.9-4.35a1 1 0 0 1-.53-.87v-6.88h5.95a1 1 0 1 0 0-2h-5.95V24.1c0-.16 0-.31-.03-.46h5.98a1 1 0 1 0 0-2h-6.45a1 1 0 0 0-.55.17c-.51-.43-1.17-.7-1.88-.71Z" fill="#14B2E4"/>
</svg>
