<svg width="64" height="65" fill="none" xmlns="http://www.w3.org/2000/svg">
  <path fill-rule="evenodd" clip-rule="evenodd" d="M30.7.5a3.1 3.1 0 0 1 2.6 0l28.93 13.39a3.02 3.02 0 0 1 1.45 4.1l-1.23 2.44a3.08 3.08 0 0 1-4.08 1.37L32.44 9.43c-.28-.13-.6-.13-.88 0L5.63 21.8c-1.51.72-3.33.11-4.08-1.37L.32 18a3.02 3.02 0 0 1 1.45-4.11L30.7.49Zm1.73 1.83c-.27-.13-.59-.13-.86 0L2.64 15.73a1 1 0 0 0-.49 1.36l1.23 2.43c.25.5.86.7 1.36.46L30.67 7.61a3.1 3.1 0 0 1 2.66 0l25.93 12.37c.5.24 1.1.04 1.36-.46l1.23-2.43a1 1 0 0 0-.49-1.37L32.43 2.32ZM20.75 48.07h.51c1.7 0 3.07-1.36 3.07-3.03v-7.6a6.1 6.1 0 0 0-6.13-6.07h-5.12a6.1 6.1 0 0 0-6.13 6.08v7.59A3.05 3.05 0 0 0 10 48.07h.52v13.1a3.06 3.06 0 0 0 3.8 2.95l1.3-.33 1.31.33a3.06 3.06 0 0 0 3.81-2.95v-13.1ZM13.08 33.4A4.07 4.07 0 0 0 9 37.45v7.59c0 .56.46 1.01 1.02 1.01h1.54v-6.58c0-.56.46-1.01 1.02-1.01.57 0 1.02.45 1.02 1.01v6.58c0 .75-.4 1.4-1.02 1.75v13.37c0 .66.63 1.14 1.27.98l.78-.19V50.1c0-.56.45-1.01 1.02-1.01.56 0 1.02.45 1.02 1v11.87l.78.2c.64.15 1.27-.33 1.27-.99V47.69a1.5 1.5 0 0 1-.51-1.13v-7.09c0-.56.45-1.01 1.02-1.01.56 0 1.02.45 1.02 1.01v6.58h1.02c.57 0 1.03-.45 1.03-1.01v-7.6a4.07 4.07 0 0 0-4.1-4.04h-5.1ZM42.32 33.45a3.07 3.07 0 0 1 2.91-2.08h6.32c1.27 0 2.42.79 2.87 1.97l3.5 9.24a3.02 3.02 0 0 1-1.33 3.69l-1.83 1.06.39 1.35c.3 1.06 0 2.2-.78 2.98l-.6.59a1 1 0 0 0-.3.71v8.21a3.06 3.06 0 0 1-3.8 2.95l-1.3-.33-1.31.33a3.06 3.06 0 0 1-3.81-2.95v-8.2a1 1 0 0 0-.3-.72l-.6-.6a3.02 3.02 0 0 1-.78-2.97l.4-1.4-1.58-1.05a3.02 3.02 0 0 1-1.2-3.48l3.13-9.3Zm.25 11.79 1.74-6.05a1.02 1.02 0 0 1 1.97.56l-2.74 9.48a1 1 0 0 0 .26 1l.6.58c.57.57.9 1.35.9 2.15v8.21c0 .66.62 1.14 1.26.98l.78-.19v-9.84c0-.56.46-1 1.02-1 .57 0 1.02.44 1.02 1v9.84l.78.2c.64.15 1.27-.33 1.27-.99v-8.2c0-.81.32-1.59.9-2.16l.6-.58a1 1 0 0 0 .25-1l-.6-2.08a.8.8 0 0 1-.01-.04l-2.12-7.36c-.16-.54.15-1.1.7-1.25.54-.16 1.1.16 1.26.7l1.77 6.12 1.38-.8a1 1 0 0 0 .44-1.23l-3.5-9.23c-.15-.4-.53-.66-.95-.66h-6.32c-.44 0-.83.28-.97.69l-3.13 9.3a1 1 0 0 0 .4 1.16l1.04.69ZM25.86 48.88a3.05 3.05 0 0 1 3.07-3.04h.75A4.03 4.03 0 0 1 32 38.46a4.03 4.03 0 0 1 2.32 7.38h.75c1.7 0 3.07 1.36 3.07 3.04v5.27c0 1.12-.92 2.02-2.05 2.02v5.01a2.9 2.9 0 0 1-3.82 2.73.87.87 0 0 0-.54 0 2.9 2.9 0 0 1-3.82-2.73v-5c-1.13 0-2.05-.91-2.05-2.03v-5.27Zm3.07-1.02c-.56 0-1.02.46-1.02 1.02v5.27c1.13 0 2.04.9 2.04 2.02v5.01c0 .58.58.99 1.13.8.6-.19 1.24-.19 1.84 0a.86.86 0 0 0 1.13-.8v-5c0-1.13.91-2.03 2.04-2.03v-5.27c0-.56-.46-1.02-1.02-1.02h-6.14ZM32 44.53c-1.13 0-2.05-.9-2.05-2.02s.92-2.03 2.05-2.03 2.05.91 2.05 2.03c0 1.12-.92 2.02-2.05 2.02Z" fill="#14B2E4"/>
  <path fill-rule="evenodd" clip-rule="evenodd" d="M10.53 24.29c0-2.8 2.29-5.06 5.1-5.06a5.09 5.09 0 0 1 5.12 5.06c0 2.8-2.29 5.06-5.11 5.06a5.09 5.09 0 0 1-5.11-5.06Zm5.1 3.04a3.05 3.05 0 0 1-3.06-3.04 3.05 3.05 0 0 1 3.07-3.04c1.7 0 3.07 1.36 3.07 3.04a3.05 3.05 0 0 1-3.07 3.04ZM48.36 19.23a5.09 5.09 0 0 0-5.11 5.06c0 2.8 2.29 5.06 5.11 5.06a5.09 5.09 0 0 0 5.11-5.06c0-2.8-2.29-5.06-5.1-5.06Zm-3.07 5.06a3.05 3.05 0 0 0 3.07 3.04c1.7 0 3.07-1.36 3.07-3.04a3.05 3.05 0 0 0-3.07-3.04 3.05 3.05 0 0 0-3.07 3.04Z" fill="#14B2E4"/>
</svg>
