<svg width="64" height="65" fill="none" xmlns="http://www.w3.org/2000/svg">
  <path fill-rule="evenodd" clip-rule="evenodd" d="M28.24.02h7.52l1.08 3.84 3.56 1.62 3.2-2.17L49.8 9 48 11.74a9 9 0 0 1 .5-.01c2.56 0 4.38 1.03 5.52 2.73 1.1 1.63 1.48 3.77 1.48 5.9a8.78 8.78 0 0 1-3 6.6v.84l4.75 1.65 4.5-2.45H64v15.87L44.88 52.6c-.05.45-.15.9-.35 1.32a2.48 2.48 0 0 1-1.73 1.41c-.34.08-.7.09-1.09.04v.05c.03.56-.02 1.23-.3 1.81a2.17 2.17 0 0 1-1.73 1.25c-.2.03-.42.03-.65.01-.1.9-.52 1.73-1.08 2.33-.79.84-2.19 1.49-3.51.59a30.4 30.4 0 0 1-1.81-1.39c-.14.35-.34.68-.6.96l-2.07 2.17a2.76 2.76 0 0 1-3.95.07 2.87 2.87 0 0 1-.85-2.26c-.76.05-1.56-.2-2.15-.8a2.87 2.87 0 0 1-.85-2.26c-.76.06-1.56-.2-2.15-.8a2.88 2.88 0 0 1-.64-3.13c-.93.27-1.97.04-2.72-.7a2.86 2.86 0 0 1-.85-1.9 1 1 0 0 1-.33-.12l-2.95-1.83-.25.96H9.81L0 46.5V24.96h3.8l4.68 3.17 3.02-.88v-.61c-1.53-.77-3.5-2.7-3.5-6.28 0-2.46.67-4.62 1.98-6.18a7 7 0 0 1 5.94-2.45l-1.08-2.8 5.53-5.64 3.23 2.19 3.56-1.62L28.24.02Zm2.42 55.73a1 1 0 0 0-.88-.22 2.85 2.85 0 0 0-.82-1.63 2.76 2.76 0 0 0-2.16-.79 2.87 2.87 0 0 0-.84-2.26 2.76 2.76 0 0 0-2.72-.69c.43-1.05.21-2.3-.64-3.14a2.76 2.76 0 0 0-3.95.06l-2.06 2.18c-.07.06-.13.14-.19.21l-3.35-2.08 2.68-10.2 9.72-1.55 4.78 1.3-5.44 2.77a3 3 0 0 0-.93 4.6l.35.43a3 3 0 0 0 3.66.74l3.85-1.96a2 2 0 0 1 2.16.22l8.95 7.2c.05.33.09.69.09 1.03 0 .47-.08.84-.2 1.09-.1.2-.2.28-.35.32-.2.04-.61.04-1.34-.28l-4.9-3.99a1 1 0 1 0-1.26 1.55l4.72 3.85c.07.34.11.67.13.98.01.44-.04.73-.11.88-.04.08-.07.11-.2.13-.2.02-.62-.01-1.38-.34l-4.9-4a1 1 0 1 0-1.26 1.56l5.1 4.15.08.04c.05.52-.17 1.12-.56 1.54-.44.47-.75.42-.93.3-.7-.47-1.91-1.46-2.98-2.36a148.9 148.9 0 0 1-1.77-1.5l-.11-.1-.04-.04Zm-12.4-43.47a6 6 0 0 1 1.88 1.15c.5-.7 1.25-1.62 2.25-2.55a13.3 13.3 0 0 1 9.11-3.73c4.07 0 7.35 1.88 9.58 3.7a21.07 21.07 0 0 1 2.7 2.64 5.8 5.8 0 0 1 1.72-1.18 1 1 0 0 1 .16-.64l1.54-2.34-3.8-3.48-2.8 1.91-5.44-2.46-.92-3.28h-4.48l-.92 3.28-5.44 2.46-2.77-1.88-3.47 3.52 1.1 2.88Zm24.3 2.88c-.1-.14-.25-.31-.41-.5a19.06 19.06 0 0 0-2.34-2.27c-2.03-1.65-4.88-3.24-8.31-3.24-3.42 0-6 1.57-7.75 3.2a15.1 15.1 0 0 0-2.33 2.75 11.17 11.17 0 0 1 1.08 5.26c0 2.41-.63 4.07-1.56 5.14-.6.68-1.29 1.1-1.94 1.3v.48l3.82 1.3a1 1 0 0 1 .25.13A294.5 294.5 0 0 0 28 27.26v-.7a7.22 7.22 0 0 1-3.5-6.2c0-2.18.53-4.31 1.69-5.92a6.3 6.3 0 0 1 5.31-2.71c2.21 0 4.24.7 5.71 2.2 1.48 1.5 2.29 3.69 2.29 6.43 0 2.28-.75 3.89-1.78 4.96-.7.73-1.5 1.18-2.22 1.43v.46c1.35.34 3.05.85 4.6 1.47l4.4-.97v-.75a8.78 8.78 0 0 1-3-6.6c0-1.84.29-3.68 1.07-5.2Zm.3 14.96.22.15c.68.52 1.42 1.29 1.42 2.31v3.84l10.38-5.67-4.38-1.53v-3.28l.44-.3a6.7 6.7 0 0 0 2.56-5.28c0-1.94-.36-3.62-1.14-4.79-.74-1.1-1.92-1.84-3.86-1.84-1.97 0-3.16.76-3.9 1.9-.75 1.17-1.1 2.83-1.1 4.73a6.7 6.7 0 0 0 2.56 5.28l.44.3v3.37l-3.64.8Zm-.36 7.4v-4.94c0-.02-.04-.27-.63-.71-.54-.41-1.32-.83-2.26-1.22a34.25 34.25 0 0 0-5.33-1.68l-.78-.17v-3.72l.87-.1a3.41 3.41 0 0 0 1.9-1.05c.65-.66 1.23-1.77 1.23-3.57 0-2.34-.69-3.98-1.71-5.02a5.83 5.83 0 0 0-4.29-1.61c-1.66 0-2.86.72-3.69 1.87a8.26 8.26 0 0 0-1.31 4.76 5.21 5.21 0 0 0 2.9 4.69l.6.26v3.43l-.7.22c-1.67.5-5.43 1.63-7.05 2.04-.07.02-.2.08-.36.35-.17.27-.32.67-.44 1.16-.13.57-.2 1.2-.23 1.78l4.33-.7 7.72 2.1 8.12 2.43 1.11-.6ZM19.2 34.6c.02-.78.1-1.7.3-2.55.15-.6.36-1.23.69-1.76.08-.14.18-.28.29-.4L17 28.72v-3.76h1c.3 0 .9-.15 1.43-.77.53-.62 1.07-1.76 1.07-3.83 0-2.23-.42-3.73-1.07-4.72a3.97 3.97 0 0 0-2.23-1.62l-.03-.01c-.68-.21-.91-.28-1.67-.28a5 5 0 0 0-3.98 1.74c-.94 1.11-1.52 2.78-1.52 4.9 0 3.15 1.98 4.4 2.78 4.63l.72.21v3.54l-2.88.84 6.03 4.09-.37 1.4 2.93-.47Zm-8.47 13.77 3.62-13.84L12.1 33 8.2 47.59l2 .79h.53Zm-4.4-1.53 4.02-15.03-7.16-4.86H2v18.18l4.32 1.7Zm26.77-9.12 8.51 2.55L62 29.14v12.5l-16.88 8.6-9.98-8.06a4 4 0 0 0-4.32-.45l-3.86 1.97a1 1 0 0 1-1.22-.25l-.35-.42a1 1 0 0 1 .3-1.54l7.4-3.76ZM20.08 48.49 18 50.66c-.31.33-.3.85.02 1.17a.8.8 0 0 0 1.15-.02l2.06-2.17a.84.84 0 0 0-.01-1.17.8.8 0 0 0-1.15.02Zm1.29 6 2.06-2.17a.8.8 0 0 1 1.15-.02c.32.32.33.84.02 1.17l-2.07 2.17a.8.8 0 0 1-1.14.02.84.84 0 0 1-.02-1.17Zm5.06.88-2.06 2.17c-.31.33-.3.85.02 1.17a.8.8 0 0 0 1.14-.02l2.07-2.17a.84.84 0 0 0-.02-1.17.8.8 0 0 0-1.15.02Zm.94 5.23 2.06-2.17a.8.8 0 0 1 1.15-.02c.32.32.33.84.02 1.17l-2.07 2.17a.8.8 0 0 1-1.14.02.84.84 0 0 1-.02-1.17Z" fill="#14B2E4"/>
</svg>
