<svg width="64" height="64" fill="none" xmlns="http://www.w3.org/2000/svg">
  <path fill-rule="evenodd" clip-rule="evenodd" d="M9.84 5c0-2.76 2.2-5 4.92-5h13.78a4.96 4.96 0 0 1 4.92 5v4h2.95c3.8 0 6.89 3.13 6.89 7v14.5h-.03c-.06.52-.23 1-.46 1.44v3.31l11.33-2.56A2.97 2.97 0 0 1 57.08 30a2.98 2.98 0 0 1 2.95 3 3 3 0 0 1-1.73 2.73 2 2 0 0 1 .56.72L64 47.33l-.03.28a6 6 0 0 1-1.67 3.4A7 7 0 0 1 57.09 53c-4.77 0-7.13-3.38-6.89-5.61l.02-.17 5.1-10.77a2 2 0 0 1 .54-.71 2.98 2.98 0 0 1-1.26-1.1L42.8 37.3V57h4.59c.84 0 1.58.54 1.86 1.35l1.02 3A2 2 0 0 1 48.4 64H31.3a2 2 0 0 1-1.87-2.65l1.02-3A1.97 1.97 0 0 1 32.32 57h3.84v-7h-8.65l2.05 4.33-.03.28a6 6 0 0 1-1.67 3.4A7 7 0 0 1 22.64 60c-4.76 0-7.12-3.38-6.88-5.61l.02-.17 2-4.22h-9.9a4.96 4.96 0 0 1-4.93-5V31A2.98 2.98 0 0 1 0 28V16c0-3.87 3.08-7 6.89-7h2.95V5Zm26.32 43h-9.59l-2.15-4.55a2 2 0 0 0-.56-.72 3 3 0 0 0 1.6-1.88l10.7-2.13V48Zm-16.48-8a3 3 0 0 0 1.74 2.74 2 2 0 0 0-.55.7L18.72 48H7.87a2.98 2.98 0 0 1-2.95-3V31h11.8v1c0 1.66 1.33 3 2.96 3h3.94a2.98 2.98 0 0 0 2.95-3v-1h8.98c.12.49.33.94.61 1.33v4.35l-10.8 2.15A2.95 2.95 0 0 0 22.62 37a2.98 2.98 0 0 0-2.95 3Zm-2.95-11v-1c0-1.66 1.32-3 2.95-3h3.94a2.98 2.98 0 0 1 2.95 3v1h8.98a3.95 3.95 0 0 1 5.78-2.46V16c0-2.76-2.2-5-4.92-5H6.89a4.96 4.96 0 0 0-4.92 5v12a1 1 0 0 0 .98 1h13.78Zm21.4 4.8v22.7h2.7V33.7a3.87 3.87 0 0 1-2.7.1Zm3.2-3.8c0-1.1-.88-2-1.97-2-1.08 0-1.97.9-1.97 2s.89 2 1.97 2c1.09 0 1.97-.9 1.97-2ZM31.5 6.5V9H11.81V6.5h19.68Zm-19.64-2h19.6A2.97 2.97 0 0 0 28.54 2H14.76a2.97 2.97 0 0 0-2.91 2.5ZM47.39 59H32.32l-1.02 3h17.1l-1.01-3Zm-27.7-32h3.93a1 1 0 0 1 .98 1v4a1 1 0 0 1-.98 1h-3.94a1 1 0 0 1-.98-1v-4a1 1 0 0 1 .98-1Zm1.96 13a1 1 0 0 0 .98 1 1 1 0 0 0 .99-1 1 1 0 0 0-.99-1 1 1 0 0 0-.98 1Zm35.43-6a1 1 0 0 1-.99-1 1 1 0 0 1 .99-1 1 1 0 0 1 .98 1 1 1 0 0 1-.98 1ZM17.92 55.5h9.31c-.17.37-.42.75-.77 1.1-.72.74-1.9 1.4-3.82 1.4-2.88 0-4.24-1.44-4.72-2.5Zm9.06-2H18.3l4.34-9.19 4.34 9.19Zm34.7-5h-9.32c.48 1.06 1.84 2.5 4.73 2.5 1.92 0 3.1-.66 3.81-1.4.35-.35.6-.73.78-1.1Zm-8.93-2h8.68l-4.34-9.19-4.34 9.19Z" fill="#14B2E4"/>
</svg>
