<svg width="20" height="21" fill="none" xmlns="http://www.w3.org/2000/svg">
    <path fill-rule="evenodd" clip-rule="evenodd" d="M1.58 16.53.7 19.16l2.68-.7 3.11-.83a7.89 7.89 0 1 0-4-3.85l-.91 2.75Zm8.03.25a6.36 6.36 0 0 1-2.97-.74l-1.9.5L3 17l.57-1.7.55-1.65a6.39 6.39 0 1 1 5.5 3.13Zm2.3-5.25.75-1.3h-.01a2.1 2.1 0 0 0-1.2-.28c-.37.03-.75.17-1.05.42l-.29-.28-.28-.3c.25-.3.4-.66.42-1.03a2.1 2.1 0 0 0-.28-1.2v-.02l-1.3.76 1.3-.76h-.01l-.01-.02-.03-.05a7.43 7.43 0 0 0-.86-1.14 3.07 3.07 0 0 0-.76-.6L6.61 7.52l1.7-1.77a2.05 2.05 0 0 0-2.4.36l-.36.35c-.9.9-1.22 2.02-.96 3.14.23 1 .87 1.84 1.5 2.47l1.03 1.02 1.02 1.02a5.33 5.33 0 0 0 2.47 1.51 3.28 3.28 0 0 0 3.14-.96l.35-.35c.64-.64.78-1.61.36-2.4a3.07 3.07 0 0 0-.59-.76 5.75 5.75 0 0 0-1.14-.86l-.05-.03h-.01v-.01l-.77 1.3Zm-.62.08c.13-.22.4-.2.61-.08 0 0 .97.57 1.24 1.07.1.2.07.47-.1.64l-.35.35c-.88.88-1.85.72-2.77.07a5.74 5.74 0 0 1-.72-.62l-.22-.22-.8-.8-.8-.8-.22-.22a5.74 5.74 0 0 1-.62-.72c-.65-.92-.8-1.89.07-2.77l.35-.35c.17-.17.43-.2.64-.1.5.27 1.07 1.24 1.07 1.24.12.22.14.48-.08.6 0 0-.38.32-.44.4a.95.95 0 0 0-.16.4c-.02.13 0 .26.07.4.05.08.11.17.2.25l.8.8.79.8c.08.08.17.14.25.19.14.07.27.1.4.07a.94.94 0 0 0 .4-.16c.08-.06.4-.44.4-.44Z" fill="#0967D6"/>
</svg>