<svg width="90" height="26" viewBox="0 0 90 26" fill="none" xmlns="http://www.w3.org/2000/svg">
<path d="M3.27958 25.9156H0V25.2747H1.0435V18.5446H0V17.9036H3.27958V18.5446H2.32781V23.4548L2.19021 24.3132L2.80943 23.409L6.55916 18.7964V18.5446H5.51565V17.9036H8.81817V18.5446H7.77466V25.2747H8.81817V25.9156H5.51565V25.2747H6.49035V20.3759L6.61649 19.5174L6.05461 20.3759L2.24754 25.0458V25.2747H3.27958V25.9156Z" fill="white"/>
<path d="M3.01586 6.14879C3.16876 6.13352 3.35605 6.11826 3.57775 6.103C3.80709 6.08011 4.00967 6.06867 4.1855 6.06867C4.60596 6.06867 5.00731 6.11063 5.38954 6.19457C5.77942 6.27087 6.12343 6.40059 6.42158 6.58373C6.71972 6.76686 6.95671 7.01103 7.13254 7.31626C7.30836 7.61385 7.39628 7.98393 7.39628 8.4265C7.39628 8.84617 7.30454 9.20862 7.12107 9.51384C6.9376 9.81143 6.68914 10.0594 6.37571 10.2578C6.06228 10.4562 5.69915 10.605 5.28634 10.7042C4.88117 10.7958 4.44924 10.8416 3.99056 10.8416C3.94469 10.8416 3.85678 10.8377 3.72682 10.8301C3.59686 10.8301 3.44779 10.8263 3.2796 10.8187C3.11907 10.8187 2.95088 10.8148 2.77505 10.8072C2.59923 10.8072 2.44633 10.8072 2.31637 10.8072H0.688049V10.1663H1.73155V3.43614H0.688049V2.79517H6.84586V4.88975H6.02023V3.68794L5.79089 3.43614H3.01586V6.14879ZM3.88736 6.70963C3.6886 6.70963 3.52041 6.71344 3.38281 6.72107C3.2452 6.7287 3.12289 6.74778 3.01586 6.7783V10.1434C3.05409 10.1586 3.11524 10.1701 3.19933 10.1777C3.28343 10.1777 3.37134 10.1815 3.46308 10.1891C3.55481 10.1968 3.64273 10.2006 3.72682 10.2006C3.81091 10.2006 3.87589 10.2006 3.92176 10.2006C4.2199 10.2006 4.49129 10.1663 4.73592 10.0976C4.9882 10.0289 5.20225 9.92208 5.37808 9.7771C5.56155 9.62449 5.70298 9.43754 5.80236 9.21625C5.90938 8.99497 5.9629 8.7279 5.9629 8.41505C5.9629 7.85802 5.79089 7.43453 5.44688 7.14457C5.10287 6.85461 4.58303 6.70963 3.88736 6.70963Z" fill="white"/>
<path d="M11.1006 10.8072H8.29116V10.1663H9.18559L12.1556 2.79517H13.3711L16.0888 10.1663H16.9488V10.8072H13.6692V10.1663H14.6898L13.9444 8.1518H10.8942L10.1144 10.1663H11.1006V10.8072ZM11.1579 7.51083H13.7495L12.8092 4.86686L12.5225 3.65361H12.4766L12.1441 4.88975L11.1579 7.51083Z" fill="white"/>
<path d="M17.6584 3.43614V2.79517H18.851C19.195 2.79517 19.5658 2.77991 19.9633 2.74939C20.3684 2.71887 20.7583 2.70361 21.1329 2.70361C21.5534 2.70361 21.9662 2.74557 22.3714 2.82951C22.7765 2.90582 23.1358 3.03935 23.4493 3.23011C23.7627 3.42088 24.015 3.6765 24.2061 3.99698C24.4049 4.30983 24.5042 4.7028 24.5042 5.17589C24.5042 5.6261 24.4049 6.01525 24.2061 6.34336C24.0073 6.66385 23.7436 6.9271 23.4149 7.13312C23.0938 7.33915 22.7192 7.49176 22.2911 7.59095C21.8706 7.69015 21.4349 7.73975 20.9838 7.73975C20.938 7.73975 20.8692 7.73975 20.7774 7.73975C20.6857 7.73975 20.5863 7.73975 20.4793 7.73975C20.3799 7.73212 20.2844 7.72449 20.1926 7.71686C20.1009 7.70923 20.0321 7.7016 19.9862 7.69397V10.1663H21.1329V10.8072H17.6584V10.1663H18.7019V3.43614H17.6584ZM19.9862 7.04156C20.0244 7.05682 20.0818 7.06826 20.1582 7.07589C20.2423 7.07589 20.3302 7.07971 20.422 7.08734C20.5137 7.09497 20.6016 7.09879 20.6857 7.09879C20.7774 7.09879 20.8462 7.09879 20.8921 7.09879C21.1903 7.09879 21.4693 7.06445 21.7292 6.99577C21.9968 6.91947 22.2299 6.80501 22.4287 6.6524C22.6275 6.49979 22.7842 6.3014 22.8988 6.05722C23.0135 5.81304 23.0708 5.51927 23.0708 5.17589C23.0708 4.55019 22.8721 4.08855 22.4746 3.79096C22.0847 3.49337 21.5496 3.34457 20.8692 3.34457C20.6628 3.34457 20.4908 3.3522 20.3532 3.36746C20.2156 3.37509 20.0932 3.39035 19.9862 3.41325V7.04156Z" fill="white"/>
<path d="M25.6508 3.43614V2.79517H28.8043V3.43614H27.9787V10.1663H30.7996V3.43614H29.9739V2.79517H32.9095V3.43614H32.0839V10.1663H34.9048V3.43614H34.0791V2.79517H37.2326V3.43614H36.1891V10.1663H37.4734V12.6614H36.6822V11.059L36.4528 10.8072H25.6508V10.1663H26.6943V3.43614H25.6508Z" fill="white"/>
<path d="M44.4806 2.79517V4.67228H43.7468V3.68794L43.5174 3.43614H40.708V6.40059H42.6459L42.8179 6.22891V5.74818H43.5518V7.70541H42.8179V7.22469L42.6459 7.04156H40.708V10.1663H43.7124L43.9417 9.93734V8.81565H44.6756V10.8072H38.3802V10.1663H39.4237V3.43614H38.3802V2.79517H44.4806Z" fill="white"/>
<path d="M46.1151 10.8072V10.1663H47.1586V3.43614H46.1151V2.79517H47.6172C47.7778 2.79517 47.9307 2.79136 48.0759 2.78373C48.2212 2.7761 48.3741 2.76847 48.5346 2.76084C48.6951 2.75321 48.8672 2.74557 49.0506 2.73794C49.2417 2.73031 49.452 2.7265 49.6813 2.7265C50.0177 2.7265 50.3617 2.75321 50.7133 2.80662C51.065 2.8524 51.3823 2.94397 51.6651 3.08132C51.948 3.21867 52.1773 3.41325 52.3531 3.66505C52.5366 3.90923 52.6283 4.22971 52.6283 4.6265C52.6283 4.83252 52.5901 5.03473 52.5137 5.23312C52.4449 5.43152 52.3379 5.61465 52.1926 5.78252C52.055 5.95039 51.8792 6.09919 51.6651 6.22891C51.4511 6.35863 51.2026 6.45401 50.9198 6.51505V6.56083C51.172 6.59899 51.4243 6.66385 51.6766 6.75541C51.9289 6.84698 52.1544 6.97288 52.3531 7.13312C52.5595 7.28573 52.7239 7.4765 52.8462 7.70541C52.9685 7.93433 53.0297 8.20903 53.0297 8.52951C53.0297 8.94156 52.9265 9.29637 52.7201 9.59396C52.5213 9.89155 52.2576 10.1357 51.9289 10.3265C51.6001 10.5173 51.2255 10.6584 50.8051 10.75C50.3923 10.8339 49.9718 10.8759 49.5437 10.8759C49.2456 10.8759 48.9092 10.8644 48.5346 10.8416C48.1677 10.8187 47.8122 10.8072 47.4682 10.8072H46.1151ZM49.6354 10.2349C49.9336 10.2349 50.2088 10.1968 50.4611 10.1205C50.721 10.0365 50.9427 9.92208 51.1262 9.7771C51.3096 9.63212 51.4511 9.46043 51.5504 9.26204C51.6575 9.05601 51.711 8.83091 51.711 8.58674C51.711 8.28152 51.646 8.02971 51.516 7.83132C51.3937 7.62529 51.2255 7.46505 51.0115 7.35059C50.8051 7.2285 50.5605 7.14457 50.2776 7.09879C49.9948 7.053 49.6966 7.03011 49.3832 7.03011H48.4429V10.1319C48.5575 10.1624 48.6951 10.1891 48.8557 10.212C49.0239 10.2273 49.2838 10.2349 49.6354 10.2349ZM49.0621 6.43493C49.215 6.43493 49.3832 6.43111 49.5666 6.42348C49.7578 6.40822 49.9183 6.39296 50.0483 6.3777C50.4381 6.25561 50.7516 6.06103 50.9886 5.79397C51.2255 5.51927 51.344 5.19879 51.344 4.83252C51.344 4.32891 51.1835 3.95883 50.8624 3.72228C50.5413 3.48574 50.1056 3.36746 49.5552 3.36746C49.2953 3.36746 49.0736 3.37509 48.8901 3.39035C48.7143 3.39798 48.5652 3.40943 48.4429 3.42469V6.43493H49.0621Z" fill="white"/>
<path d="M60.5341 8.70119H61.268V10.4982C61.031 10.6279 60.7175 10.7347 60.3277 10.8187C59.9378 10.9026 59.5517 10.9446 59.1695 10.9446C58.4662 10.9446 57.8355 10.8644 57.2774 10.7042C56.7194 10.544 56.2454 10.296 55.8555 9.96023C55.4733 9.61686 55.179 9.18573 54.9726 8.66686C54.7661 8.14798 54.6629 7.52609 54.6629 6.8012C54.6629 6.0534 54.7776 5.42007 55.007 4.9012C55.2363 4.37469 55.5459 3.94738 55.9358 3.61927C56.3257 3.28353 56.7767 3.03935 57.2889 2.88674C57.8011 2.73413 58.34 2.65782 58.9058 2.65782C59.181 2.65782 59.4294 2.66927 59.6511 2.69216C59.8728 2.70742 60.0716 2.73413 60.2474 2.77228C60.4309 2.81043 60.5991 2.85622 60.752 2.90963C60.9048 2.96304 61.0539 3.02027 61.1992 3.08132V5.03855H60.4653V3.83674L60.3047 3.60782C60.2206 3.56967 60.0869 3.52389 59.9034 3.47047C59.7276 3.41706 59.4409 3.39035 59.0434 3.39035C58.6306 3.39035 58.2445 3.45521 57.8852 3.58493C57.5259 3.71465 57.2125 3.91686 56.9449 4.19156C56.685 4.46626 56.4786 4.82108 56.3257 5.25602C56.1728 5.68332 56.0963 6.19838 56.0963 6.8012C56.0963 7.89236 56.3715 8.73553 56.922 9.33071C57.48 9.91826 58.2598 10.212 59.2612 10.212C59.5364 10.212 59.7658 10.193 59.9493 10.1548C60.1404 10.109 60.2818 10.0518 60.3735 9.98312L60.5341 9.76565V8.70119Z" fill="white"/>
<path d="M65.8114 6.43493L68.3112 3.43614H67.3824V2.79517H70.2148V3.43614H69.3089L66.5797 6.49216L69.8249 10.1663H70.5359V10.8072H68.6897L65.6738 7.00722H65.0661V10.1663H66.0178V10.8072H62.7383V10.1663H63.7818V3.43614H62.7383V2.79517H66.0178V3.43614H65.0661V6.43493H65.8114Z" fill="white"/>
<path d="M74.5254 10.8072H71.2458V10.1663H72.2893V3.43614H71.2458V2.79517H74.5254V3.43614H73.5736V8.34637L73.436 9.20481L74.0553 8.30059L77.805 3.68794V3.43614H76.7615V2.79517H80.064V3.43614H79.0205V10.1663H80.064V10.8072H76.7615V10.1663H77.7362V5.26746L77.8623 4.40903L77.3004 5.26746L73.4934 9.93734V10.1663H74.5254V10.8072Z" fill="white"/>
<path d="M84.4216 10.8072H81.142V10.1663H82.1855V3.43614H81.142V2.79517H84.4216V3.43614H83.4698V8.34637L83.3322 9.20481L83.9514 8.30059L87.7011 3.68794V3.43614H86.6576V2.79517H89.9602V3.43614H88.9167V10.1663H89.9602V10.8072H86.6576V10.1663H87.6323V5.26746L87.7585 4.40903L87.1966 5.26746L83.3895 9.93734V10.1663H84.4216V10.8072ZM85.6141 2.303C84.8267 2.303 84.2457 2.17329 83.8712 1.91385C83.4966 1.65441 83.3093 1.25762 83.3093 0.723488H84.6395V1.6277C84.7465 1.68112 84.8879 1.72309 85.0637 1.75361C85.2396 1.7765 85.4268 1.78794 85.6256 1.78794C85.7709 1.78794 85.9429 1.7765 86.1416 1.75361C86.3404 1.73072 86.4971 1.70019 86.6118 1.66204V0.723488H87.8846C87.8846 1.24999 87.705 1.64678 87.3457 1.91385C86.994 2.17329 86.4168 2.303 85.6141 2.303Z" fill="white"/>
<path d="M19.2991 18.5446V25.2747H20.2509V25.9157H16.9713V25.2747H18.0148V18.5446H16.9713V17.9036H25.5028V18.5446H24.4593V25.2747H25.5028V25.9157H22.2232V25.2747H23.175V18.5446H19.2991Z" fill="white"/>
<path d="M29.3628 25.9157H26.5534V25.2747H27.4478L30.4178 17.9036H31.6333L34.351 25.2747H35.211V25.9157H31.9314V25.2747H32.952L32.2066 23.2602H29.1564L28.3766 25.2747H29.3628V25.9157ZM29.4201 22.6193H32.0117L31.0714 19.9753L30.7847 18.762H30.7389L30.4063 19.9982L29.4201 22.6193Z" fill="white"/>
<path d="M36.2646 18.5446V17.9036H37.4572C37.8012 17.9036 38.172 17.8883 38.5695 17.8578C38.9747 17.8273 39.3646 17.812 39.7392 17.812C40.1596 17.812 40.5724 17.854 40.9776 17.9379C41.3828 18.0143 41.7421 18.1478 42.0555 18.3385C42.3689 18.5293 42.6212 18.7849 42.8123 19.1054C43.0111 19.4183 43.1105 19.8112 43.1105 20.2843C43.1105 20.7345 43.0111 21.1237 42.8123 21.4518C42.6136 21.7723 42.3498 22.0355 42.0211 22.2416C41.7 22.4476 41.3254 22.6002 40.8973 22.6994C40.4769 22.7986 40.0411 22.8482 39.5901 22.8482C39.5442 22.8482 39.4754 22.8482 39.3837 22.8482C39.2919 22.8482 39.1926 22.8482 39.0855 22.8482C38.9862 22.8406 38.8906 22.8329 38.7989 22.8253C38.7071 22.8177 38.6383 22.81 38.5924 22.8024V25.2747H39.7392V25.9157H36.2646V25.2747H37.3081V18.5446H36.2646ZM38.5924 22.15C38.6307 22.1653 38.688 22.1767 38.7645 22.1843C38.8485 22.1843 38.9365 22.1881 39.0282 22.1958C39.1199 22.2034 39.2078 22.2072 39.2919 22.2072C39.3837 22.2072 39.4525 22.2072 39.4983 22.2072C39.7965 22.2072 40.0755 22.1729 40.3354 22.1042C40.603 22.0279 40.8362 21.9134 41.0349 21.7608C41.2337 21.6082 41.3904 21.4098 41.5051 21.1657C41.6198 20.9215 41.6771 20.6277 41.6771 20.2843C41.6771 19.6586 41.4783 19.197 41.0808 18.8994C40.6909 18.6018 40.1558 18.453 39.4754 18.453C39.269 18.453 39.097 18.4606 38.9594 18.4759C38.8218 18.4835 38.6995 18.4988 38.5924 18.5217V22.15Z" fill="white"/>
<path d="M50.0594 25.9157H46.4129V25.2747H47.594V18.5446H45.5414L45.3121 18.7964V20.2729H44.4864V17.9036H51.9859V20.2729H51.1602V18.7964L50.9309 18.5446H48.8783V25.2747H50.0594V25.9157Z" fill="white"/>
<path d="M56.5755 25.2747V25.9157H53.2959V25.2747H54.3394V18.5446H53.2959V17.9036H56.5755V18.5446H55.6237V21.4861H59.6372V18.5446H58.6854V17.9036H61.965V18.5446H60.9215V25.2747H61.965V25.9157H58.6854V25.2747H59.6372V22.1271H55.6237V25.2747H56.5755Z" fill="white"/>
<path d="M69.491 17.9036V19.7807H68.7571V18.7964L68.5277 18.5446H65.7183V21.509H67.6562L67.8282 21.3373V20.8566H68.5621V22.8138H67.8282V22.3331L67.6562 22.15H65.7183V25.2747H68.7227L68.952 25.0458V23.9241H69.6859V25.9157H63.3905V25.2747H64.434V18.5446H63.3905V17.9036H69.491Z" fill="white"/>
<path d="M71.4694 18.5446V17.9036H72.662C73.006 17.9036 73.3767 17.8883 73.7743 17.8578C74.1794 17.8273 74.5693 17.812 74.9439 17.812C75.3644 17.812 75.7772 17.854 76.1824 17.9379C76.5875 18.0143 76.9468 18.1478 77.2603 18.3385C77.5737 18.5293 77.826 18.7849 78.0171 19.1054C78.2158 19.4183 78.3152 19.8112 78.3152 20.2843C78.3152 20.7345 78.2158 21.1237 78.0171 21.4518C77.8183 21.7723 77.5546 22.0355 77.2259 22.2416C76.9048 22.4476 76.5302 22.6002 76.1021 22.6994C75.6816 22.7986 75.2459 22.8482 74.7948 22.8482C74.749 22.8482 74.6802 22.8482 74.5884 22.8482C74.4967 22.8482 74.3973 22.8482 74.2903 22.8482C74.1909 22.8406 74.0953 22.8329 74.0036 22.8253C73.9119 22.8177 73.8431 22.81 73.7972 22.8024V25.2747H74.9439V25.9157H71.4694V25.2747H72.5129V18.5446H71.4694ZM73.7972 22.15C73.8354 22.1653 73.8928 22.1767 73.9692 22.1843C74.0533 22.1843 74.1412 22.1881 74.233 22.1958C74.3247 22.2034 74.4126 22.2072 74.4967 22.2072C74.5884 22.2072 74.6572 22.2072 74.7031 22.2072C75.0012 22.2072 75.2803 22.1729 75.5402 22.1042C75.8078 22.0279 76.0409 21.9134 76.2397 21.7608C76.4384 21.6082 76.5952 21.4098 76.7098 21.1657C76.8245 20.9215 76.8818 20.6277 76.8818 20.2843C76.8818 19.6586 76.6831 19.197 76.2856 18.8994C75.8957 18.6018 75.3605 18.453 74.6802 18.453C74.4738 18.453 74.3018 18.4606 74.1642 18.4759C74.0265 18.4835 73.9042 18.4988 73.7972 18.5217V22.15Z" fill="white"/>
<path d="M79.8059 18.5446V17.9036H83.2689V18.5446H82.1337V21.1428C82.3018 21.1199 82.493 21.1008 82.707 21.0855C82.9211 21.0703 83.116 21.0626 83.2918 21.0626C83.7123 21.0626 84.1136 21.097 84.4959 21.1657C84.8858 21.2343 85.2259 21.3564 85.5164 21.5319C85.8146 21.7074 86.0516 21.9478 86.2274 22.253C86.4032 22.5582 86.4911 22.9474 86.4911 23.4205C86.4911 23.8707 86.3918 24.256 86.193 24.5765C86.0019 24.8893 85.7458 25.1488 85.4247 25.3548C85.1036 25.5608 84.7367 25.7134 84.3239 25.8126C83.9187 25.9042 83.5059 25.95 83.0854 25.95C83.0472 25.95 82.9669 25.9462 82.8446 25.9385C82.7223 25.9385 82.5809 25.9347 82.4203 25.9271C82.2598 25.9271 82.0954 25.9233 81.9273 25.9157C81.7591 25.9157 81.61 25.9157 81.48 25.9157H79.8059V25.2747H80.8494V18.5446H79.8059ZM86.6746 18.5446V17.9036H90.0001V18.5446H88.9566V25.2747H90.0001V25.9157H86.6746V25.2747H87.6722V18.5446H86.6746ZM82.9937 21.7036C82.7949 21.7036 82.6267 21.7112 82.4891 21.7265C82.3592 21.7341 82.2407 21.7494 82.1337 21.7723V25.2518C82.1719 25.2671 82.2292 25.2785 82.3057 25.2861C82.3898 25.2861 82.4777 25.2899 82.5694 25.2976C82.6611 25.3052 82.7491 25.309 82.8332 25.309C82.9172 25.309 82.9822 25.309 83.0281 25.309C83.3262 25.309 83.5976 25.2709 83.8423 25.1946C84.0945 25.1183 84.3086 25.0038 84.4844 24.8512C84.6679 24.691 84.8093 24.4926 84.9087 24.256C85.0081 24.0118 85.0578 23.7295 85.0578 23.409C85.0578 22.2721 84.3697 21.7036 82.9937 21.7036Z" fill="white"/>
</svg>
