<svg width="188" height="249" viewBox="0 0 188 249" fill="none" xmlns="http://www.w3.org/2000/svg">
<rect x="28" y="46" width="104" height="146" fill="#202020"/>
<rect x="69" y="112" width="96" height="80" fill="#202020"/>
<path d="M0 150.155V38.5001C20.1977 41.3312 40.7181 15.1562 32.5 4.19617e-05L155.5 0C147.282 15.1561 167.802 41.3312 188 38.5001V150.155C188 159.3 186.241 168.359 182.819 176.839C178.664 187.137 172.161 196.323 163.828 203.663L161.025 206.132C157.348 209.372 153.404 212.295 149.236 214.871L94 249L38.7644 214.871C34.5956 212.295 30.6516 209.372 26.9745 206.132L24.172 203.663C15.8392 196.323 9.33608 187.137 5.18065 176.839C1.75883 168.359 0 159.3 0 150.155Z" fill="white"/>
<path d="M71.18 219V217.74C71.5667 217.62 71.96 217.507 72.36 217.4C72.7733 217.293 73.1933 217.2 73.62 217.12L73.84 209.38H71.2V208.16L75.34 206.6H77.46V217.18L79.8 217.62V219H71.18ZM86.2175 206.44C87.9642 206.44 89.2642 206.933 90.1175 207.92C90.9708 208.907 91.3975 210.427 91.3975 212.48C91.3975 214.76 90.8442 216.46 89.7375 217.58C88.6442 218.7 86.9508 219.26 84.6575 219.26C84.2308 219.26 83.7775 219.233 83.2975 219.18C82.8308 219.14 82.3375 219.087 81.8175 219.02L82.7775 216.32C83.8308 216.613 85.0908 216.76 86.5575 216.76C87.2908 216.76 88.0642 216.7 88.8775 216.58L87.2575 217.24C87.4842 216.707 87.6642 216 87.7975 215.12C87.9308 214.24 87.9975 213.32 87.9975 212.36C87.9975 211.067 87.8575 210.153 87.5775 209.62C87.2975 209.087 86.8242 208.82 86.1575 208.82C85.6642 208.82 85.2842 208.96 85.0175 209.24C84.7642 209.52 84.6375 209.933 84.6375 210.48C84.6375 211.013 84.7575 211.393 84.9975 211.62C85.2508 211.847 85.6775 211.96 86.2775 211.96H90.0575V214.28H85.8375C84.3308 214.28 83.1842 213.967 82.3975 213.34C81.6108 212.7 81.2175 211.787 81.2175 210.6C81.2175 209.307 81.6642 208.293 82.5575 207.56C83.4642 206.813 84.6842 206.44 86.2175 206.44ZM83.3975 214.94L84.9775 219.02H81.8175L81.8575 214.94H83.3975ZM98.8581 206.44C100.605 206.44 101.905 206.933 102.758 207.92C103.611 208.907 104.038 210.427 104.038 212.48C104.038 214.76 103.485 216.46 102.378 217.58C101.285 218.7 99.5915 219.26 97.2981 219.26C96.8715 219.26 96.4181 219.233 95.9381 219.18C95.4715 219.14 94.9781 219.087 94.4581 219.02L95.4181 216.32C96.4715 216.613 97.7315 216.76 99.1981 216.76C99.9315 216.76 100.705 216.7 101.518 216.58L99.8981 217.24C100.125 216.707 100.305 216 100.438 215.12C100.571 214.24 100.638 213.32 100.638 212.36C100.638 211.067 100.498 210.153 100.218 209.62C99.9381 209.087 99.4648 208.82 98.7981 208.82C98.3048 208.82 97.9248 208.96 97.6581 209.24C97.4048 209.52 97.2781 209.933 97.2781 210.48C97.2781 211.013 97.3981 211.393 97.6381 211.62C97.8915 211.847 98.3181 211.96 98.9181 211.96H102.698V214.28H98.4781C96.9715 214.28 95.8248 213.967 95.0381 213.34C94.2515 212.7 93.8581 211.787 93.8581 210.6C93.8581 209.307 94.3048 208.293 95.1981 207.56C96.1048 206.813 97.3248 206.44 98.8581 206.44ZM96.0381 214.94L97.6181 219.02H94.4581L94.4981 214.94H96.0381ZM111.799 219.24C110.652 219.24 109.665 218.993 108.839 218.5C108.025 217.993 107.399 217.273 106.959 216.34C106.532 215.407 106.319 214.287 106.319 212.98C106.319 211.633 106.552 210.473 107.019 209.5C107.485 208.513 108.145 207.753 108.999 207.22C109.865 206.687 110.885 206.42 112.059 206.42C113.232 206.42 114.232 206.667 115.059 207.16C115.899 207.64 116.532 208.34 116.959 209.26C117.399 210.18 117.619 211.28 117.619 212.56C117.619 213.947 117.385 215.14 116.919 216.14C116.465 217.14 115.805 217.907 114.939 218.44C114.072 218.973 113.025 219.24 111.799 219.24ZM111.999 217.06C112.439 217.06 112.792 216.907 113.059 216.6C113.339 216.28 113.545 215.807 113.679 215.18C113.825 214.553 113.899 213.76 113.899 212.8C113.899 211.88 113.825 211.12 113.679 210.52C113.532 209.92 113.305 209.473 112.999 209.18C112.705 208.873 112.319 208.72 111.839 208.72C111.639 208.72 111.432 208.753 111.219 208.82C111.019 208.887 110.819 208.987 110.619 209.12C110.445 209.72 110.305 210.333 110.199 210.96C110.105 211.587 110.059 212.24 110.059 212.92C110.059 213.84 110.125 214.607 110.259 215.22C110.405 215.833 110.619 216.293 110.899 216.6C111.192 216.907 111.559 217.06 111.999 217.06Z" fill="#353F87"/>
<path d="M117.493 87.6308C114.805 85.0095 111.492 83.0212 107.611 81.6211C110.348 80.0722 112.728 78.1727 114.728 75.9094L114.737 75.8987L114.747 75.8879C118.32 71.7503 120.163 67.0028 120.163 61.727C120.163 55.3081 117.573 50.0586 112.484 46.2083C107.528 42.3104 100.981 40.5 93.1153 40.5H75.4964V39.4951L74.4915 40.5H50.0938H47.5938V43V45.9103V48.0252L49.6794 48.3757L62.6171 50.5501L61.549 117.131C59.0774 117.377 56.8994 117.703 55.0275 118.117C52.7205 118.563 50.7028 119.161 49.0293 119.948L47.5938 120.624V122.21V124.867V127.367H50.0938H74.4915L75.4964 128.372V127.367H91.9765C101.503 127.367 109.315 125.316 115.124 120.913L115.129 120.909C121.08 116.374 124.085 110.19 124.085 102.597C124.085 96.7438 121.847 91.7102 117.493 87.6308ZM75.4964 77.4479V51.4471H91.4703C96.566 51.4471 100.291 52.6594 102.923 54.8068L102.938 54.8194L102.954 54.8318C105.51 56.8494 106.812 59.5588 106.812 63.2454C106.812 66.4072 105.756 69.0885 103.592 71.4107C101.433 73.7273 98.0803 75.7784 93.3274 77.4479H75.4964ZM97.9014 116.42H75.4964V88.395H91.3438C97.4412 88.395 102.077 89.8558 105.488 92.5411L105.511 92.5592L105.534 92.5767C108.941 95.1322 110.608 98.4762 110.608 102.851C110.608 106.283 109.488 109.123 107.238 111.513L107.236 111.515C105.088 113.802 102.037 115.478 97.9014 116.42Z" fill="#353F87" stroke="white" stroke-width="5"/>
<path d="M108.143 139.33C106.191 139.29 104.299 139.224 102.611 139.152V106.58H117.573C123.233 106.58 127.155 108.029 129.747 110.553L129.76 110.565L129.772 110.577C132.335 113.004 133.8 116.685 133.8 122.048C133.8 125.797 132.962 128.915 131.383 131.499C130.471 132.992 129.696 134.162 128.583 135.234C127.486 136.29 125.958 137.344 123.48 138.377C122.574 138.754 120.52 139.071 117.543 139.235C114.694 139.391 111.355 139.396 108.143 139.33ZM102.611 172.391V149.601H115.801C121.923 149.601 127.375 148.492 132.086 146.183L132.095 146.179L132.103 146.174C136.869 143.791 140.608 140.45 143.233 136.144C145.958 131.815 147.278 126.789 147.278 121.162C147.278 115.997 146.145 111.435 143.754 107.594C141.467 103.702 138.183 100.725 133.981 98.6706C129.767 96.6102 124.817 95.6328 119.218 95.6328H79.0161H76.5161V98.1328V101.043V103.111L78.5471 103.499L89.7326 105.635L88.6645 172.216C86.2537 172.413 84.1058 172.715 82.2337 173.131C80.0413 173.618 78.8117 174.221 77.6887 174.771C77.4732 174.877 77.2615 174.98 77.0478 175.081L75.6123 175.756V177.343V180V182.5H78.1123H116.922H119.422V180V176.963V174.795L117.276 174.489L102.611 172.391Z" fill="#353F87" stroke="white" stroke-width="5"/>
<mask id="mask0_1041_13342" style="mask-type:alpha" maskUnits="userSpaceOnUse" x="44" y="108" width="80" height="21">
<rect x="44" y="108.074" width="79.5356" height="20.7877" fill="#C4C4C4"/>
</mask>
<g mask="url(#mask0_1041_13342)">
<path d="M117.493 87.6308C114.805 85.0095 111.492 83.0212 107.611 81.6211C110.348 80.0722 112.728 78.1727 114.728 75.9094L114.737 75.8987L114.747 75.8879C118.32 71.7503 120.163 67.0028 120.163 61.727C120.163 55.3081 117.573 50.0586 112.484 46.2083C107.528 42.3104 100.981 40.5 93.1153 40.5H75.4964V39.4951L74.4915 40.5H50.0938H47.5938V43V45.9103V48.0252L49.6794 48.3757L62.6171 50.5501L61.549 117.131C59.0774 117.377 56.8994 117.703 55.0275 118.117C52.7205 118.563 50.7028 119.161 49.0293 119.948L47.5938 120.624V122.21V124.867V127.367H50.0938H74.4915L75.4964 128.372V127.367H91.9765C101.503 127.367 109.315 125.316 115.124 120.913L115.129 120.909C121.08 116.374 124.085 110.19 124.085 102.597C124.085 96.7438 121.847 91.7102 117.493 87.6308ZM75.4964 77.4479V51.4471H91.4703C96.566 51.4471 100.291 52.6594 102.923 54.8068L102.938 54.8194L102.954 54.8318C105.51 56.8494 106.812 59.5588 106.812 63.2454C106.812 66.4072 105.756 69.0885 103.592 71.4107C101.433 73.7273 98.0803 75.7784 93.3274 77.4479H75.4964ZM97.9014 116.42H75.4964V88.395H91.3438C97.4412 88.395 102.077 89.8558 105.488 92.5411L105.511 92.5592L105.534 92.5767C108.941 95.1322 110.608 98.4762 110.608 102.851C110.608 106.283 109.488 109.123 107.238 111.513L107.236 111.515C105.088 113.802 102.037 115.478 97.9014 116.42Z" fill="#353F87" stroke="white" stroke-width="5"/>
</g>
</svg>
