<svg width="441" height="132" viewBox="0 0 441 132" fill="none" xmlns="http://www.w3.org/2000/svg">
<path d="M10.6 52V49.2H15.15V19.8H10.6V17H17.15C17.85 17 18.5167 16.9833 19.15 16.95C19.7833 16.9167 20.45 16.8833 21.15 16.85C21.85 16.8167 22.6 16.7833 23.4 16.75C24.2333 16.7167 25.15 16.7 26.15 16.7C27.6167 16.7 29.1167 16.8167 30.65 17.05C32.1833 17.25 33.5667 17.65 34.8 18.25C36.0333 18.85 37.0333 19.7 37.8 20.8C38.6 21.8667 39 23.2667 39 25C39 25.9 38.8333 26.7833 38.5 27.65C38.2 28.5167 37.7333 29.3167 37.1 30.05C36.5 30.7833 35.7333 31.4333 34.8 32C33.8667 32.5667 32.7833 32.9833 31.55 33.25V33.45C32.65 33.6167 33.75 33.9 34.85 34.3C35.95 34.7 36.9333 35.25 37.8 35.95C38.7 36.6167 39.4167 37.45 39.95 38.45C40.4833 39.45 40.75 40.65 40.75 42.05C40.75 43.85 40.3 45.4 39.4 46.7C38.5333 48 37.3833 49.0667 35.95 49.9C34.5167 50.7333 32.8833 51.35 31.05 51.75C29.25 52.1167 27.4167 52.3 25.55 52.3C24.25 52.3 22.7833 52.25 21.15 52.15C19.55 52.05 18 52 16.5 52H10.6ZM25.95 49.5C27.25 49.5 28.45 49.3333 29.55 49C30.6833 48.6333 31.65 48.1333 32.45 47.5C33.25 46.8667 33.8667 46.1167 34.3 45.25C34.7667 44.35 35 43.3667 35 42.3C35 40.9667 34.7167 39.8667 34.15 39C33.6167 38.1 32.8833 37.4 31.95 36.9C31.05 36.3667 29.9833 36 28.75 35.8C27.5167 35.6 26.2167 35.5 24.85 35.5H20.75V49.05C21.25 49.1833 21.85 49.3 22.55 49.4C23.2833 49.4667 24.4167 49.5 25.95 49.5ZM23.45 32.9C24.1167 32.9 24.85 32.8833 25.65 32.85C26.4833 32.7833 27.1833 32.7167 27.75 32.65C29.45 32.1167 30.8167 31.2667 31.85 30.1C32.8833 28.9 33.4 27.5 33.4 25.9C33.4 23.7 32.7 22.0833 31.3 21.05C29.9 20.0167 28 19.5 25.6 19.5C24.4667 19.5 23.5 19.5333 22.7 19.6C21.9333 19.6333 21.2833 19.6833 20.75 19.75V32.9H23.45ZM56.2715 52H44.0215V49.2H47.9215L60.8715 17H66.1715L78.0215 49.2H81.7715V52H67.4715V49.2H71.9215L68.6715 40.4H55.3715L51.9715 49.2H56.2715V52ZM56.5215 37.6H67.8215L63.7215 26.05L62.4715 20.75H62.2715L60.8215 26.15L56.5215 37.6ZM94.0156 49.2H98.3156V52H83.8656V49.2H88.4156V19.8H83.8656V17H88.9156C90.4156 17 92.049 16.9333 93.8156 16.8C95.5823 16.6667 97.3156 16.6 99.0156 16.6C100.849 16.6 102.566 16.8 104.166 17.2C105.799 17.5667 107.199 18.15 108.366 18.95C109.532 19.75 110.449 20.7833 111.116 22.05C111.816 23.2833 112.166 24.7667 112.166 26.5C112.166 28.9 111.416 30.95 109.916 32.65C108.449 34.3167 106.516 35.5 104.116 36.2L114.066 49.2H117.166V52H109.066L99.1156 36.9H94.0156V49.2ZM97.9656 34.3C100.532 34.3 102.532 33.6 103.966 32.2C105.432 30.8 106.166 28.9 106.166 26.5C106.166 24.0333 105.399 22.2333 103.866 21.1C102.332 19.9667 100.299 19.4 97.7656 19.4C96.899 19.4 96.1656 19.4333 95.5656 19.5C94.999 19.5667 94.4823 19.6333 94.0156 19.7V34.3H97.9656ZM124.466 47.1L125.366 48.3C125.966 48.7333 126.783 49.1 127.816 49.4C128.883 49.6667 130.049 49.8 131.316 49.8C132.516 49.8 133.616 49.6833 134.616 49.45C135.649 49.1833 136.549 48.8 137.316 48.3C138.083 47.8 138.683 47.1667 139.116 46.4C139.549 45.6333 139.766 44.7167 139.766 43.65C139.766 42.2833 139.299 41.15 138.366 40.25C137.466 39.35 136.333 38.55 134.966 37.85C133.599 37.15 132.116 36.4667 130.516 35.8C128.916 35.1333 127.433 34.35 126.066 33.45C124.699 32.55 123.549 31.4667 122.616 30.2C121.716 28.9333 121.266 27.3333 121.266 25.4C121.266 22.5667 122.333 20.3667 124.466 18.8C126.633 17.2 129.549 16.4 133.216 16.4C135.516 16.4 137.499 16.55 139.166 16.85C140.833 17.15 142.249 17.55 143.416 18.05V26.65H140.216V21.25L139.416 20C138.783 19.7333 137.866 19.5333 136.666 19.4C135.466 19.2667 134.283 19.2 133.116 19.2C131.116 19.2 129.549 19.6667 128.416 20.6C127.283 21.5 126.716 22.7833 126.716 24.45C126.716 25.8167 127.166 26.9667 128.066 27.9C128.999 28.8 130.149 29.6167 131.516 30.35C132.883 31.0833 134.366 31.8 135.966 32.5C137.566 33.1667 139.049 33.95 140.416 34.85C141.783 35.7167 142.916 36.7667 143.816 38C144.749 39.2333 145.216 40.7667 145.216 42.6C145.216 45.8333 143.966 48.3167 141.466 50.05C138.966 51.75 135.549 52.6 131.216 52.6C128.849 52.6 126.799 52.35 125.066 51.85C123.333 51.35 122.066 50.8167 121.266 50.25V41.15H124.466V47.1ZM164.351 49.2V52H150.051V49.2H154.601V19.8H150.051V17H164.351V19.8H160.201V32.65H177.701V19.8H173.551V17H187.851V19.8H183.301V49.2H187.851V52H173.551V49.2H177.701V35.45H160.201V49.2H164.351ZM218.417 42.8H221.617V50.65C220.583 51.2167 219.217 51.6833 217.517 52.05C215.817 52.4167 214.133 52.6 212.467 52.6C209.4 52.6 206.65 52.25 204.217 51.55C201.783 50.85 199.717 49.7667 198.017 48.3C196.35 46.8 195.067 44.9167 194.167 42.65C193.267 40.3833 192.817 37.6667 192.817 34.5C192.817 31.2333 193.317 28.4667 194.317 26.2C195.317 23.9 196.667 22.0333 198.367 20.6C200.067 19.1333 202.033 18.0667 204.267 17.4C206.5 16.7333 208.85 16.4 211.317 16.4C212.517 16.4 213.6 16.45 214.567 16.55C215.533 16.6167 216.4 16.7333 217.167 16.9C217.967 17.0667 218.7 17.2667 219.367 17.5C220.033 17.7333 220.683 17.9833 221.317 18.25V26.8H218.117V21.55L217.417 20.55C217.05 20.3833 216.467 20.1833 215.667 19.95C214.9 19.7167 213.65 19.6 211.917 19.6C210.117 19.6 208.433 19.8833 206.867 20.45C205.3 21.0167 203.933 21.9 202.767 23.1C201.633 24.3 200.733 25.85 200.067 27.75C199.4 29.6167 199.067 31.8667 199.067 34.5C199.067 39.2667 200.267 42.95 202.667 45.55C205.1 48.1167 208.5 49.4 212.867 49.4C214.067 49.4 215.067 49.3167 215.867 49.15C216.7 48.95 217.317 48.7 217.717 48.4L218.417 47.45V42.8ZM241.279 49.2V52H226.979V49.2H231.529V19.8H226.979V17H241.279V19.8H237.129V32.65H254.629V19.8H250.479V17H264.779V19.8H260.229V49.2H264.779V52H250.479V49.2H254.629V35.45H237.129V49.2H241.279ZM295.095 17V25.2H291.895V20.9L290.895 19.8H278.645V32.75H287.095L287.845 32V29.9H291.045V38.45H287.845V36.35L287.095 35.55H278.645V49.2H291.745L292.745 48.2V43.3H295.945V52H268.495V49.2H273.045V19.8H268.495V17H295.095ZM330.321 19.8H325.771V17H338.171V19.8H334.071L322.471 52H316.921L303.921 19.8H299.621V17H314.971V19.8H310.171L319.171 43.15L320.621 47.9H320.821L322.321 43.05L330.321 19.8ZM344.995 47.1L345.895 48.3C346.495 48.7333 347.312 49.1 348.345 49.4C349.412 49.6667 350.579 49.8 351.845 49.8C353.045 49.8 354.145 49.6833 355.145 49.45C356.179 49.1833 357.079 48.8 357.845 48.3C358.612 47.8 359.212 47.1667 359.645 46.4C360.079 45.6333 360.295 44.7167 360.295 43.65C360.295 42.2833 359.829 41.15 358.895 40.25C357.995 39.35 356.862 38.55 355.495 37.85C354.129 37.15 352.645 36.4667 351.045 35.8C349.445 35.1333 347.962 34.35 346.595 33.45C345.229 32.55 344.079 31.4667 343.145 30.2C342.245 28.9333 341.795 27.3333 341.795 25.4C341.795 22.5667 342.862 20.3667 344.995 18.8C347.162 17.2 350.079 16.4 353.745 16.4C356.045 16.4 358.029 16.55 359.695 16.85C361.362 17.15 362.779 17.55 363.945 18.05V26.65H360.745V21.25L359.945 20C359.312 19.7333 358.395 19.5333 357.195 19.4C355.995 19.2667 354.812 19.2 353.645 19.2C351.645 19.2 350.079 19.6667 348.945 20.6C347.812 21.5 347.245 22.7833 347.245 24.45C347.245 25.8167 347.695 26.9667 348.595 27.9C349.529 28.8 350.679 29.6167 352.045 30.35C353.412 31.0833 354.895 31.8 356.495 32.5C358.095 33.1667 359.579 33.95 360.945 34.85C362.312 35.7167 363.445 36.7667 364.345 38C365.279 39.2333 365.745 40.7667 365.745 42.6C365.745 45.8333 364.495 48.3167 361.995 50.05C359.495 51.75 356.079 52.6 351.745 52.6C349.379 52.6 347.329 52.35 345.595 51.85C343.862 51.35 342.595 50.8167 341.795 50.25V41.15H344.995V47.1ZM383.98 32.9L394.88 19.8H390.83V17H403.18V19.8H399.23L387.33 33.15L401.48 49.2H404.58V52H396.53L383.38 35.4H380.73V49.2H384.88V52H370.58V49.2H375.13V19.8H370.58V17H384.88V19.8H380.73V32.9H383.98ZM427.609 17H440.059V19.8H435.809L425.159 37.15V49.2H429.709V52H415.009V49.2H419.559V37.2L408.259 19.8H403.709V17H418.809V19.8H414.609L423.659 34.35L432.209 19.8H427.609V17Z" fill="white"/>
<path d="M67.3056 85.8V83H72.5056C74.0056 83 75.6222 82.9333 77.3556 82.8C79.1222 82.6667 80.8222 82.6 82.4556 82.6C84.2889 82.6 86.0889 82.7833 87.8556 83.15C89.6222 83.4833 91.1889 84.0667 92.5556 84.9C93.9222 85.7333 95.0222 86.85 95.8556 88.25C96.7222 89.6167 97.1556 91.3333 97.1556 93.4C97.1556 95.3667 96.7222 97.0667 95.8556 98.5C94.9889 99.9 93.8389 101.05 92.4056 101.95C91.0056 102.85 89.3722 103.517 87.5056 103.95C85.6722 104.383 83.7722 104.6 81.8056 104.6C81.6056 104.6 81.3056 104.6 80.9056 104.6C80.5056 104.6 80.0722 104.6 79.6056 104.6C79.1722 104.567 78.7556 104.533 78.3556 104.5C77.9556 104.467 77.6556 104.433 77.4556 104.4V115.2H82.4556V118H67.3056V115.2H71.8556V85.8H67.3056ZM77.4556 101.55C77.6222 101.617 77.8722 101.667 78.2056 101.7C78.5722 101.7 78.9556 101.717 79.3556 101.75C79.7556 101.783 80.1389 101.8 80.5056 101.8C80.9056 101.8 81.2056 101.8 81.4056 101.8C82.7056 101.8 83.9222 101.65 85.0556 101.35C86.2222 101.017 87.2389 100.517 88.1056 99.85C88.9722 99.1833 89.6556 98.3167 90.1556 97.25C90.6556 96.1833 90.9056 94.9 90.9056 93.4C90.9056 90.6667 90.0389 88.65 88.3056 87.35C86.6056 86.05 84.2722 85.4 81.3056 85.4C80.4056 85.4 79.6556 85.4333 79.0556 85.5C78.4556 85.5333 77.9222 85.6 77.4556 85.7V101.55ZM110.155 118H97.9048V115.2H101.805L114.755 83H120.055L131.905 115.2H135.655V118H121.355V115.2H125.805L122.555 106.4H109.255L105.855 115.2H110.155V118ZM110.405 103.6H121.705L117.605 92.05L116.355 86.75H116.155L114.705 92.15L110.405 103.6ZM150.399 115.2H154.699V118H140.249V115.2H144.799V85.8H140.249V83H145.299C146.799 83 148.432 82.9333 150.199 82.8C151.966 82.6667 153.699 82.6 155.399 82.6C157.232 82.6 158.949 82.8 160.549 83.2C162.182 83.5667 163.582 84.15 164.749 84.95C165.916 85.75 166.832 86.7833 167.499 88.05C168.199 89.2833 168.549 90.7667 168.549 92.5C168.549 94.9 167.799 96.95 166.299 98.65C164.832 100.317 162.899 101.5 160.499 102.2L170.449 115.2H173.549V118H165.449L155.499 102.9H150.399V115.2ZM154.349 100.3C156.916 100.3 158.916 99.6 160.349 98.2C161.816 96.8 162.549 94.9 162.549 92.5C162.549 90.0333 161.782 88.2333 160.249 87.1C158.716 85.9667 156.682 85.4 154.149 85.4C153.282 85.4 152.549 85.4333 151.949 85.5C151.382 85.5667 150.866 85.6333 150.399 85.7V100.3H154.349ZM199.666 118H183.766V115.2H188.916V85.8H179.966L178.966 86.9V93.35H175.366V83H208.066V93.35H204.466V86.9L203.466 85.8H194.516V115.2H199.666V118ZM239.278 83H251.578V85.8H247.028V118.6H243.778L223.428 91.15L221.228 87.3H221.028L221.528 91.2V115.2H226.078V118H213.778V115.2H218.328V85.8H213.778V83H223.778L241.278 106.55L243.878 110.85H244.128L243.828 106.55V85.8H239.278V83ZM284.394 83V91.2H281.194V86.9L280.194 85.8H267.944V98.75H276.394L277.144 98V95.9H280.344V104.45H277.144V102.35L276.394 101.55H267.944V115.2H281.044L282.044 114.2V109.3H285.244V118H257.794V115.2H262.344V85.8H257.794V83H284.394ZM303.17 115.2H307.47V118H293.02V115.2H297.57V85.8H293.02V83H298.07C299.57 83 301.204 82.9333 302.97 82.8C304.737 82.6667 306.47 82.6 308.17 82.6C310.004 82.6 311.72 82.8 313.32 83.2C314.954 83.5667 316.354 84.15 317.52 84.95C318.687 85.75 319.604 86.7833 320.27 88.05C320.97 89.2833 321.32 90.7667 321.32 92.5C321.32 94.9 320.57 96.95 319.07 98.65C317.604 100.317 315.67 101.5 313.27 102.2L323.22 115.2H326.32V118H318.22L308.27 102.9H303.17V115.2ZM307.12 100.3C309.687 100.3 311.687 99.6 313.12 98.2C314.587 96.8 315.32 94.9 315.32 92.5C315.32 90.0333 314.554 88.2333 313.02 87.1C311.487 85.9667 309.454 85.4 306.92 85.4C306.054 85.4 305.32 85.4333 304.72 85.5C304.154 85.5667 303.637 85.6333 303.17 85.7V100.3H307.12ZM336.121 113.1L337.021 114.3C337.621 114.733 338.437 115.1 339.471 115.4C340.537 115.667 341.704 115.8 342.971 115.8C344.171 115.8 345.271 115.683 346.271 115.45C347.304 115.183 348.204 114.8 348.971 114.3C349.737 113.8 350.337 113.167 350.771 112.4C351.204 111.633 351.421 110.717 351.421 109.65C351.421 108.283 350.954 107.15 350.021 106.25C349.121 105.35 347.987 104.55 346.621 103.85C345.254 103.15 343.771 102.467 342.171 101.8C340.571 101.133 339.087 100.35 337.721 99.45C336.354 98.55 335.204 97.4667 334.271 96.2C333.371 94.9333 332.921 93.3333 332.921 91.4C332.921 88.5667 333.987 86.3667 336.121 84.8C338.287 83.2 341.204 82.4 344.871 82.4C347.171 82.4 349.154 82.55 350.821 82.85C352.487 83.15 353.904 83.55 355.071 84.05V92.65H351.871V87.25L351.071 86C350.437 85.7333 349.521 85.5333 348.321 85.4C347.121 85.2667 345.937 85.2 344.771 85.2C342.771 85.2 341.204 85.6667 340.071 86.6C338.937 87.5 338.371 88.7833 338.371 90.45C338.371 91.8167 338.821 92.9667 339.721 93.9C340.654 94.8 341.804 95.6167 343.171 96.35C344.537 97.0833 346.021 97.8 347.621 98.5C349.221 99.1667 350.704 99.95 352.071 100.85C353.437 101.717 354.571 102.767 355.471 104C356.404 105.233 356.871 106.767 356.871 108.6C356.871 111.833 355.621 114.317 353.121 116.05C350.621 117.75 347.204 118.6 342.871 118.6C340.504 118.6 338.454 118.35 336.721 117.85C334.987 117.35 333.721 116.817 332.921 116.25V107.15H336.121V113.1Z" fill="white"/>
<path d="M30.25 111.85C29.1167 110.95 27.8833 109.9 26.55 108.7C25.25 107.467 23.9833 106.233 22.75 105C21.5167 103.733 20.3833 102.517 19.35 101.35C18.3167 100.183 17.5167 99.2167 16.95 98.45C15.3833 99.8167 14.2333 101.167 13.5 102.5C12.7667 103.8 12.4 105.317 12.4 107.05C12.4 108.317 12.6333 109.5 13.1 110.6C13.5667 111.667 14.2167 112.6 15.05 113.4C15.8833 114.167 16.8833 114.783 18.05 115.25C19.2167 115.683 20.4833 115.9 21.85 115.9C23.4833 115.9 25.0167 115.567 26.45 114.9C27.8833 114.233 29.15 113.217 30.25 111.85ZM15.95 88.85C15.95 89.45 16.0833 90.0833 16.35 90.75C16.6167 91.4167 16.95 92.1 17.35 92.8C17.7833 93.4667 18.25 94.1167 18.75 94.75C19.2833 95.35 19.7833 95.9 20.25 96.4C21.6167 95.4 22.6667 94.2833 23.4 93.05C24.1333 91.7833 24.5 90.2 24.5 88.3C24.5 87.2333 24.15 86.3333 23.45 85.6C22.75 84.8667 21.6667 84.5 20.2 84.5C19.4 84.5 18.7167 84.6333 18.15 84.9C17.6167 85.1333 17.1833 85.4667 16.85 85.9C16.55 86.3 16.3167 86.7667 16.15 87.3C16.0167 87.8 15.95 88.3167 15.95 88.85ZM39 118C38.2333 117.533 37.25 116.967 36.05 116.3C34.8833 115.6 33.6 114.667 32.2 113.5C31.7 114.1 31.05 114.7 30.25 115.3C29.45 115.9 28.5167 116.45 27.45 116.95C26.4167 117.45 25.2333 117.85 23.9 118.15C22.6 118.45 21.2 118.6 19.7 118.6C17.6667 118.6 15.8333 118.333 14.2 117.8C12.6 117.233 11.2333 116.5 10.1 115.6C9 114.7 8.15 113.667 7.55 112.5C6.95 111.333 6.65 110.117 6.65 108.85C6.65 107.217 6.98333 105.75 7.65 104.45C8.31667 103.15 9.1 102 10 101C10.9333 100 11.9 99.1667 12.9 98.5C13.9333 97.8 14.8 97.2333 15.5 96.8C14.4333 95.7333 13.5167 94.5 12.75 93.1C12.0167 91.6667 11.65 90.3333 11.65 89.1C11.65 88.2667 11.8333 87.45 12.2 86.65C12.5667 85.8167 13.1167 85.1 13.85 84.5C14.5833 83.8667 15.4833 83.3667 16.55 83C17.6167 82.6 18.8333 82.4 20.2 82.4C22.7 82.4 24.7167 82.8833 26.25 83.85C27.7833 84.8167 28.55 86.2 28.55 88C28.55 89.1 28.3333 90.1167 27.9 91.05C27.4667 91.9833 26.9167 92.85 26.25 93.65C25.5833 94.45 24.8167 95.1833 23.95 95.85C23.1167 96.5167 22.2833 97.1333 21.45 97.7C22.9833 99.4 24.75 101.15 26.75 102.95C28.75 104.717 30.8667 106.5 33.1 108.3C33.3667 107.967 33.7 107.433 34.1 106.7C34.5 105.933 34.8833 105.033 35.25 104C35.6167 102.967 35.9333 101.85 36.2 100.65C36.4667 99.4167 36.6 98.1667 36.6 96.9C36.6 96.6667 36.6 96.4333 36.6 96.2C36.6 95.9667 36.5833 95.7333 36.55 95.5H33.25V93H44.75V95.5H41C40.6667 97.4333 40.25 99.2 39.75 100.8C39.25 102.4 38.7167 103.817 38.15 105.05C37.6167 106.25 37.0833 107.283 36.55 108.15C36.05 108.983 35.65 109.6 35.35 110C36.75 111.033 38.1333 112 39.5 112.9C40.8667 113.8 42.3833 114.667 44.05 115.5H47.1V118H39Z" fill="white"/>
</svg>
