<svg width="44" height="57" viewBox="0 0 44 57" fill="none" xmlns="http://www.w3.org/2000/svg">
<rect x="6.40967" y="10.5301" width="23.8072" height="33.4217" fill="white"/>
<rect x="15.7952" y="25.6385" width="21.9759" height="18.3132" fill="white"/>
<path d="M0 34.3395V8.81327C4.72712 9.46135 9.52977 3.46948 7.60638 9.60568e-06L36.3936 0C34.4702 3.46948 39.2729 9.46135 44 8.81327V34.3395C44 36.454 43.585 38.548 42.7786 40.5028C41.8121 42.8456 40.3082 44.9282 38.3882 46.5825L37.6737 47.1982C36.8218 47.9322 35.9099 48.5935 34.9475 49.1752L22 57L9.05251 49.1752C8.09012 48.5935 7.1782 47.9322 6.32632 47.1982L5.61176 46.5825C3.69184 44.9282 2.1879 42.8456 1.22139 40.5028C0.414972 38.548 0 36.454 0 34.3395Z" fill="white"/>
<path d="M17 50.1325V49.8441C17.0885 49.8166 17.1786 49.7907 17.2701 49.7662C17.3647 49.7418 17.4609 49.7205 17.5586 49.7021L17.6089 47.9303H17.0046V47.6511L17.9523 47.294H18.4376V49.7159L18.9733 49.8166V50.1325H17Z" fill="#353F87"/>
<path d="M20.4423 47.2573C20.8422 47.2573 21.1397 47.3703 21.3351 47.5961C21.5304 47.822 21.6281 48.1699 21.6281 48.64C21.6281 49.1619 21.5014 49.5511 21.2481 49.8074C20.9978 50.0638 20.6102 50.192 20.0852 50.192C19.9875 50.192 19.8838 50.1859 19.7739 50.1737C19.6671 50.1646 19.5541 50.1523 19.4351 50.1371L19.6548 49.519C19.896 49.5862 20.1844 49.6197 20.5201 49.6197C20.688 49.6197 20.865 49.606 21.0512 49.5785L20.6804 49.7296C20.7323 49.6075 20.7735 49.4458 20.804 49.2443C20.8345 49.0429 20.8498 48.8323 20.8498 48.6125C20.8498 48.3164 20.8177 48.1074 20.7536 47.9853C20.6895 47.8632 20.5812 47.8021 20.4286 47.8021C20.3157 47.8021 20.2287 47.8342 20.1676 47.8983C20.1096 47.9624 20.0806 48.057 20.0806 48.1821C20.0806 48.3042 20.1081 48.3912 20.163 48.4431C20.221 48.495 20.3187 48.5209 20.4561 48.5209H21.3214V49.052H20.3553C20.0104 49.052 19.7479 48.9803 19.5679 48.8368C19.3878 48.6903 19.2977 48.4813 19.2977 48.2096C19.2977 47.9135 19.4 47.6816 19.6045 47.5137C19.812 47.3428 20.0913 47.2573 20.4423 47.2573ZM19.7968 49.2031L20.1585 50.1371H19.4351L19.4442 49.2031H19.7968Z" fill="#353F87"/>
<path d="M23.336 47.2573C23.7358 47.2573 24.0334 47.3703 24.2287 47.5961C24.4241 47.822 24.5217 48.1699 24.5217 48.64C24.5217 49.1619 24.3951 49.5511 24.1417 49.8074C23.8915 50.0638 23.5038 50.192 22.9788 50.192C22.8812 50.192 22.7774 50.1859 22.6675 50.1737C22.5607 50.1646 22.4478 50.1523 22.3287 50.1371L22.5485 49.519C22.7896 49.5862 23.078 49.6197 23.4138 49.6197C23.5817 49.6197 23.7587 49.606 23.9449 49.5785L23.574 49.7296C23.6259 49.6075 23.6671 49.4458 23.6976 49.2443C23.7282 49.0429 23.7434 48.8323 23.7434 48.6125C23.7434 48.3164 23.7114 48.1074 23.6473 47.9853C23.5832 47.8632 23.4748 47.8021 23.3222 47.8021C23.2093 47.8021 23.1223 47.8342 23.0613 47.8983C23.0033 47.9624 22.9743 48.057 22.9743 48.1821C22.9743 48.3042 23.0017 48.3912 23.0567 48.4431C23.1147 48.495 23.2123 48.5209 23.3497 48.5209H24.215V49.052H23.249C22.9041 49.052 22.6416 48.9803 22.4615 48.8368C22.2814 48.6903 22.1914 48.4813 22.1914 48.2096C22.1914 47.9135 22.2936 47.6816 22.4981 47.5137C22.7057 47.3428 22.9849 47.2573 23.336 47.2573ZM22.6904 49.2031L23.0521 50.1371H22.3287L22.3379 49.2031H22.6904Z" fill="#353F87"/>
<path d="M26.2983 50.1874C26.0358 50.1874 25.8099 50.131 25.6207 50.018C25.4345 49.9021 25.291 49.7372 25.1903 49.5236C25.0926 49.3099 25.0438 49.0535 25.0438 48.7544C25.0438 48.4462 25.0972 48.1806 25.204 47.9578C25.3109 47.7319 25.462 47.558 25.6573 47.4359C25.8557 47.3138 26.0892 47.2527 26.3578 47.2527C26.6264 47.2527 26.8553 47.3092 27.0445 47.4221C27.2368 47.532 27.3818 47.6923 27.4795 47.9029C27.5802 48.1135 27.6306 48.3653 27.6306 48.6583C27.6306 48.9757 27.5771 49.2489 27.4703 49.4778C27.3665 49.7067 27.2155 49.8822 27.0171 50.0043C26.8187 50.1264 26.5791 50.1874 26.2983 50.1874ZM26.344 49.6884C26.4448 49.6884 26.5257 49.6533 26.5867 49.5831C26.6508 49.5099 26.6981 49.4015 26.7286 49.258C26.7622 49.1146 26.779 48.933 26.779 48.7132C26.779 48.5026 26.7622 48.3286 26.7286 48.1913C26.695 48.054 26.6432 47.9517 26.573 47.8846C26.5058 47.8144 26.4173 47.7793 26.3074 47.7793C26.2616 47.7793 26.2143 47.7869 26.1655 47.8021C26.1197 47.8174 26.0739 47.8403 26.0281 47.8708C25.9885 48.0082 25.9564 48.1486 25.932 48.292C25.9106 48.4355 25.8999 48.585 25.8999 48.7407C25.8999 48.9513 25.9152 49.1268 25.9457 49.2672C25.9793 49.4076 26.0281 49.5129 26.0922 49.5831C26.1594 49.6533 26.2433 49.6884 26.344 49.6884Z" fill="#353F87"/>
<path d="M8.93164 34.2429V33.7399C9.79101 33.4045 10.4377 33.1949 11.9678 33.111L12.2193 15.0957L8.93164 14.4983V13.9638H23.9151L23.8523 17.4262H23.3178L22.406 15.1586H13.0367L13.697 14.5298V33.0167H20.0165C21.2741 32.7652 22.2488 32.2622 22.9405 31.5076C23.6531 30.7321 24.0095 29.7993 24.0095 28.7094C24.0095 27.2212 23.5588 26.0998 22.6575 25.3453C21.7772 24.5907 20.4986 24.2134 18.8218 24.2134H12.9424V22.9872H19.1362C21.1274 22.9872 22.6994 23.4903 23.8523 24.4964C25.026 25.5025 25.6129 26.8439 25.6129 28.5207C25.6129 30.2605 24.9527 31.6543 23.6322 32.7023C22.3326 33.7294 20.5824 34.2429 18.3816 34.2429H8.93164Z" fill="#353F87"/>
<path d="M21.7026 21.9547H31.352L31.0916 38.4785C30.7125 38.5271 30.3301 38.5927 29.9446 38.6754L29.9446 38.6753L29.9391 38.6766C29.6176 38.748 29.366 38.8285 29.1239 38.9112C29.0692 38.9299 29.0158 38.9483 28.9627 38.9668C28.7793 39.0302 28.5981 39.093 28.3682 39.1619L27.8337 39.3223V39.8803V40.289V41.039H28.5837H36.8704H37.6204V40.289V39.7231V39.0963L37.0036 38.985L34.3102 38.499V21.7826C34.7345 21.7304 35.1461 21.6687 35.5448 21.5976C36.0475 21.5108 36.3968 21.3947 36.7424 21.2798C36.8572 21.2417 36.9715 21.2037 37.0909 21.167L37.6204 21.0041V20.4501V20.01V19.26H36.8704H15.9132H15.1632V20.01V20.5445V21.1791L15.7892 21.2841L18.716 21.775L18.4828 38.4736C18.1075 38.5161 17.725 38.571 17.3353 38.6382L17.3309 38.6389C16.9067 38.7147 16.5649 38.816 16.2187 38.9186C16.0564 38.9667 15.8931 39.0151 15.72 39.0613L15.1632 39.2098V39.786V40.289V41.039H15.9132H24.1999H24.9499V40.289V39.7231V39.0985L24.3356 38.9855L21.7026 38.5011V21.9547Z" fill="#353F87" stroke="white" stroke-width="1.5"/>
<mask id="mask0_844_6940" style="mask-type:alpha" maskUnits="userSpaceOnUse" x="7" y="21" width="20" height="6">
<rect x="7.00006" y="21.3443" width="19.751" height="5.24007" fill="#C4C4C4"/>
</mask>
<g mask="url(#mask0_844_6940)">
<path d="M6.38348 34.2429V36.2429H8.38348H18.3815C20.8844 36.2429 23.1187 35.6572 24.8722 34.2714L24.8754 34.2689C26.6914 32.8276 27.6128 30.8481 27.6128 28.5207C27.6128 26.319 26.8138 24.4041 25.1605 22.9836C24.9345 22.7868 24.6992 22.606 24.4552 22.4405H25.8328L25.8521 20.46L25.915 13.9832L25.9346 11.9638H23.9151H15.6969V9.86308L13.4911 11.9638H8.38348H6.38348V13.9638V14.4983V16.2109L8.07572 16.4745L8.65947 16.5654L8.03666 17.1585H10.1902L9.99286 31.2945C9.12532 31.422 8.33897 31.6103 7.6564 31.8767L6.38348 32.3734V33.7398V34.2429ZM19.1361 20.9872H15.6969V17.1585H20.7216L21.3468 20.7807L21.4195 21.202C20.692 21.0558 19.9277 20.9872 19.1361 20.9872ZM19.8041 31.0167H15.6969V26.2134H18.8217C20.23 26.2134 20.9701 26.5331 21.3558 26.8638L21.3647 26.8713L21.3736 26.8788C21.7047 27.156 22.0094 27.6426 22.0094 28.7094C22.0094 29.3173 21.8284 29.7618 21.4677 30.1543L21.4661 30.1561C21.1489 30.5022 20.6432 30.8217 19.8041 31.0167Z" fill="#353F87" stroke="white" stroke-width="4"/>
</g>
</svg>
